<?xml version="1.0" standalone="no"?>
<!DOCTYPE svg PUBLIC "-//W3C//DTD SVG 1.1//EN" "http://www.w3.org/Graphics/SVG/1.1/DTD/svg11.dtd" >
<svg xmlns="http://www.w3.org/2000/svg" xmlns:xlink="http://www.w3.org/1999/xlink" version="1.1">
<metadata>
Created by FontForge 20170924 at Thu Jun  6 01:11:41 2002
 By www-data
Copyright (c) 1991, 2002 Adobe Systems Incorporated.  All Rights Reserved. (c) 1981, 2002 Heidelberger Druckmaschinen AG. All rights reserved.
</metadata>
<defs>
<font id="WilkeLTStd-BoldItalic" horiz-adv-x="592" >
  <font-face 
    font-family="Wilke LT Std"
    font-weight="700"
    font-style="italic"
    font-stretch="normal"
    units-per-em="1000"
    panose-1="0 0 8 0 0 0 0 0 0 0"
    ascent="728"
    descent="-272"
    x-height="479"
    cap-height="702"
    bbox="-166 -250 1137 960"
    underline-thickness="50"
    underline-position="-150"
    slope="-12"
    unicode-range="U+0020-FB02"
  />
<missing-glyph horiz-adv-x="593" 
d="M93 0v700h500v-700h-500zM343 395l170 255h-340zM373 350l170 -255v510zM173 50h340l-170 255zM143 605v-510l170 255z" />
    <glyph glyph-name="fi" unicode="fi" horiz-adv-x="648" 
d="M31 398l9 39h93q10 56 30.5 102.5t57.5 88t97.5 64.5t139.5 23q19 0 42 -3.5t52.5 -12.5t48.5 -29.5t19 -49.5q0 -35 -23.5 -56t-58.5 -21q-31 0 -48.5 17t-17.5 40t15 37.5t33 18.5q-9 9 -14 13.5t-18.5 8.5t-34.5 4q-38 0 -68 -12t-49 -30.5t-33.5 -46.5t-22.5 -54
t-14 -60l-8 -42h65q54 0 105.5 21t89.5 21q30 0 49 -17t19 -46q0 -20 -43.5 -166.5t-43.5 -177.5q0 -29 15 -29q21 0 48 31.5t42 83.5l33 -13q-6 -15 -17.5 -33.5t-36 -52t-61 -55t-77.5 -21.5q-28 0 -49.5 19t-21.5 64q0 47 36 180t36 148t-15 15q-4 0 -17.5 -2.5
t-39.5 -5.5t-61 -3h-60q-18 -124 -32 -202q-14 -74 -35 -143.5t-53.5 -140t-80.5 -113.5t-104 -43q-33 0 -51 19t-18 46q0 26 19.5 49t48.5 23q19 0 32 -13t13 -34q0 -37 -31 -54q6 -6 16 -6q66 0 104 296l17 132q14 113 27 184h-94z" />
    <glyph glyph-name="fl" unicode="fl" horiz-adv-x="648" 
d="M31 398l9 39h93q59 278 235 278q45 0 70 -27q139 0 214 32q-36 -95 -68 -254l-63 -313q-11 -58 -11 -86q0 -24 16 -24q6 0 21 10.5t34.5 40t28.5 68.5l33 -14q-13 -48 -66.5 -106.5t-115.5 -58.5q-76 0 -76 95q0 32 14 104l64 318q15 71 23 128q-16 14 -31 18h-2
q1 -2 1 -10q0 -33 -21.5 -53.5t-50.5 -20.5q-21 0 -35.5 14t-14.5 37q0 44 32 57q-3 12 -22 12q-24 0 -38 -35.5t-31 -126.5l-15 -83h102l-9 -39h-98q-3 -26 -15.5 -95t-18.5 -105q-10 -63 -30.5 -133.5t-53.5 -142.5t-82 -119t-105 -47q-33 0 -51 19t-18 46q0 26 19.5 49
t48.5 23q19 0 32 -13t13 -34q0 -37 -31 -54q6 -6 16 -6q66 0 104 296l17 132q14 113 27 184h-94z" />
    <glyph glyph-name=".notdef" horiz-adv-x="593" 
d="M93 0v700h500v-700h-500zM343 395l170 255h-340zM373 350l170 -255v510zM173 50h340l-170 255zM143 605v-510l170 255z" />
    <glyph glyph-name=".null" horiz-adv-x="0" 
 />
    <glyph glyph-name="nonmarkingreturn" horiz-adv-x="333" 
 />
    <glyph glyph-name="space" unicode=" " horiz-adv-x="296" 
 />
    <glyph glyph-name="exclam" unicode="!" horiz-adv-x="370" 
d="M69 57q0 38 22.5 67.5t58.5 29.5q35 0 53 -20t18 -50q0 -40 -25 -69.5t-65 -29.5q-27 0 -44.5 17.5t-17.5 54.5zM197 224h-42q21 186 21 373q0 81 -2 113q66 -8 100 -8q32 0 96 8q-117 -265 -173 -486z" />
    <glyph glyph-name="quotedbl" unicode="&#x22;" horiz-adv-x="444" 
d="M145 453l-13 118q-6 64 -6 73q0 71 55 71t55 -71q0 -9 -6 -73l-13 -118q-6 -52 -36 -52t-36 52zM318 453l-13 118q-6 64 -6 73q0 71 55 71t55 -71q0 -9 -6 -73l-13 -118q-6 -52 -36 -52t-36 52z" />
    <glyph glyph-name="numbersign" unicode="#" 
d="M362 286l17 122h-107l-17 -122h107zM322 0l28 202h-107l-28 -202h-84l28 202h-90l12 84h90l17 122h-90l12 84h90l28 202h84l-28 -202h107l28 202h84l-28 -202h90l-12 -84h-90l-17 -122h90l-12 -84h-90l-28 -202h-84z" />
    <glyph glyph-name="dollar" unicode="$" 
d="M314 263l-43 -231q41 12 70 46t29 87q0 35 -12.5 56.5t-43.5 41.5zM304 441l42 229q-46 -7 -71 -44.5t-25 -83.5q0 -37 12.5 -59.5t41.5 -41.5zM83 237h48q-21 -44 -21 -89q0 -40 17 -88q53 -33 102 -35l47 260l-42 22q-29 15 -45.5 25.5t-39 31t-33 50t-10.5 67.5
q0 26 7 53.5t25.5 58.5t45.5 56t71 43.5t99 22.5q14 71 18 110l53 -10q-5 -18 -26 -100q17 -1 65.5 -4.5t75.5 -3.5q18 0 47 8q-27 -88 -37.5 -134.5t-17.5 -114.5h-48q18 50 18 86q0 37 -24 93q-43 29 -86 31l-50 -258l39 -22q133 -75 133 -178q0 -34 -14.5 -70.5
t-43 -70.5t-78.5 -57.5t-114 -27.5q-7 -37 -20 -122l-45 7q14 56 23 115q-12 1 -52.5 4.5t-62.5 3.5t-76 -8q49 158 52 245z" />
    <glyph glyph-name="percent" unicode="%" horiz-adv-x="685" 
d="M301 126q0 75 51 129t148 54q86 0 123.5 -40.5t37.5 -94.5q0 -78 -57.5 -134.5t-143.5 -56.5q-45 0 -77.5 14t-49.5 36.5t-24.5 45.5t-7.5 47zM402 104q0 -102 52 -102q47 0 76.5 67t29.5 130q0 88 -58 88q-41 0 -70.5 -54.5t-29.5 -128.5zM61 527q0 75 51 129t148 54
q86 0 123.5 -40.5t37.5 -94.5q0 -78 -57.5 -134.5t-143.5 -56.5q-45 0 -77.5 14t-49.5 36.5t-24.5 45.5t-7.5 47zM162 505q0 -102 52 -102q47 0 76.5 67t29.5 130q0 88 -58 88q-41 0 -70.5 -54.5t-29.5 -128.5zM645 714l39 -27q-10 -11 -29.5 -30.5t-35 -36t-28.5 -32.5
l-446 -514q-38 -44 -80 -95l-37 27q52 52 87 92l443 510q8 10 40.5 49.5t46.5 56.5z" />
    <glyph glyph-name="ampersand" unicode="&#x26;" horiz-adv-x="852" 
d="M405 390q147 58 147 169q0 52 -27 82.5t-76 30.5q-45 0 -73.5 -28t-28.5 -89q0 -66 58 -165zM182 170q0 -57 52 -95t117 -38q71 0 141 44q-98 95 -204 235q-54 -29 -80 -59.5t-26 -86.5zM818 37l-12 -45q-44 8 -107 8q-39 0 -115 -8q-15 12 -69 66q-45 -23 -71.5 -35
t-78.5 -25t-107 -13q-86 0 -155 41.5t-69 112.5t68 124t167 81q-62 91 -62 169q0 89 75 142t172 53q100 0 154 -39.5t54 -95.5q0 -33 -17 -63t-40.5 -51t-60 -41t-62 -31t-61.5 -24q12 -24 75.5 -99t105.5 -112q76 71 76 129q-11 -4 -13 -4q-7 -3 -22 -3q-25 0 -41 16
t-16 42q0 34 30 68t72 34q77 0 77 -88q0 -58 -39.5 -115t-98.5 -102q49 -49 86.5 -73.5t78.5 -24.5q17 0 26 6z" />
    <glyph glyph-name="quotesingle" unicode="'" horiz-adv-x="296" 
d="M165 453l-13 118q-6 64 -6 73q0 71 55 71t55 -71q0 -9 -6 -73l-13 -118q-6 -52 -36 -52t-36 52z" />
    <glyph glyph-name="parenleft" unicode="(" horiz-adv-x="389" 
d="M461 715l15 -42q-63 -3 -125 -109.5t-99 -254.5t-37 -277q0 -90 16 -147t36 -77q8 -8 24 -14l-26 -33q-67 68 -113.5 170t-46.5 221q0 101 28.5 192t70 151.5t93.5 109t92 73.5t72 37z" />
    <glyph glyph-name="parenright" unicode=")" horiz-adv-x="389" 
d="M-72 -239l-15 42q63 3 125 109.5t99 254.5t37 277q0 90 -16 147t-36 77q-8 8 -24 14l26 33q67 -68 113.5 -170t46.5 -221q0 -101 -28.5 -192t-70 -151.5t-93.5 -109t-92 -73.5t-72 -37z" />
    <glyph glyph-name="asterisk" unicode="*" horiz-adv-x="463" 
d="M94 563q42 46 68 93q40 -58 81 -103l2 2q2 28 2 70q0 59 -5 77q21 -3 49 -3q27 0 52 3q-39 -81 -60 -147l2 -2q77 56 122 103q14 -62 31 -93q-85 -19 -145 -44v-2q64 -29 125 -47q-36 -40 -67 -91q-26 40 -40 58t-42 44l-2 -2q-2 -40 -2 -58q0 -33 5 -88q-22 3 -46 3
q-10 0 -55 -3q41 77 60 145l-3 3q-69 -52 -117 -102q-15 50 -32 91q73 17 141 47v2q-52 23 -124 44z" />
    <glyph glyph-name="plus" unicode="+" horiz-adv-x="600" 
d="M47 205v96h205v205h96v-205h205v-96h-205v-205h-96v205h-205z" />
    <glyph glyph-name="comma" unicode="," horiz-adv-x="296" 
d="M27 -160l-19 32q15 6 28 13t23.5 16t19 16t16.5 17.5t12.5 16t10.5 17t8 14.5t7 14l5 12l-2 2q-22 -19 -49 -19t-41.5 21t-14.5 49q0 36 23.5 64.5t61.5 28.5q40 0 57.5 -29.5t17.5 -61.5q0 -51 -42 -115.5t-122 -107.5z" />
    <glyph glyph-name="hyphen" unicode="-" horiz-adv-x="296" 
d="M20 204q20 37 20 88q64 -6 113 -6q67 0 137 6q-16 -28 -16 -88q-66 4 -125 4q-49 0 -129 -4z" />
    <glyph glyph-name="period" unicode="." horiz-adv-x="296" 
d="M34 57q0 38 22.5 67.5t58.5 29.5q35 0 53 -20t18 -50q0 -40 -25 -69.5t-65 -29.5q-27 0 -44.5 17.5t-17.5 54.5z" />
    <glyph glyph-name="slash" unicode="/" horiz-adv-x="407" 
d="M88 163l167 357q39 85 90 217l86 -44q-40 -59 -98 -180l-186 -388q-16 -33 -29 -63t-24.5 -59t-17.5 -43l-75 38q49 83 87 165z" />
    <glyph glyph-name="zero" unicode="0" 
d="M41 275q0 111 39 209t116 162t176 64q104 0 163 -70t59 -209q0 -45 -12 -101t-39 -118t-64.5 -112.5t-95.5 -83.5t-125 -33q-108 0 -162.5 82.5t-54.5 209.5zM185 177q0 -75 18.5 -119.5t55.5 -44.5q42 0 79.5 57.5t61 140.5t37 166t13.5 142q0 155 -76 155
q-46 0 -84.5 -57.5t-60 -140.5t-33 -162.5t-11.5 -136.5z" />
    <glyph glyph-name="one" unicode="1" 
d="M83 -8l12 45q14 -6 26 -6q34 0 82 36q82 347 98 536q-80 -34 -181 -52l-12 53q6 -1 21 -1q59 0 155.5 30.5t174.5 81.5l31 -21q-27 -70 -46 -142q-30 -116 -57 -260t-33 -229q35 -32 67 -32q9 0 31 6l-12 -45q-48 8 -157 8q-68 0 -200 -8z" />
    <glyph glyph-name="two" unicode="2" 
d="M448 212l46 16q17 -66 17 -116q0 -38 -20 -121q-198 31 -320 31q-147 0 -147 -33q0 -4 1 -6l-43 14q18 51 63 108.5t85.5 96.5t112.5 104q34 30 57.5 54t56 61.5t50 75t17.5 72.5q0 44 -25 74.5t-77 30.5q-38 0 -73.5 -28.5t-42.5 -84.5q53 -6 53 -57q0 -41 -28.5 -70.5
t-63.5 -29.5q-33 0 -54.5 24.5t-21.5 63.5q0 81 70.5 149.5t176.5 68.5q33 0 62 -3.5t62.5 -14.5t57.5 -29t40 -49.5t16 -73.5q0 -72 -51.5 -128t-138.5 -112q-12 -8 -84.5 -51t-127 -80t-80.5 -66l2 -2q93 20 174 20q71 0 205 -20q0 72 -27 111z" />
    <glyph glyph-name="three" unicode="3" 
d="M192 294l-13 45l17 6q224 81 224 215q0 48 -26 79.5t-74 31.5q-39 0 -64.5 -22t-34.5 -49q41 -16 41 -58q0 -39 -25 -64t-61 -25q-30 0 -52 22.5t-22 55.5q0 46 23.5 82t61 56.5t78.5 30.5t82 10q96 0 160.5 -37.5t64.5 -108.5q0 -34 -16 -64.5t-36.5 -50t-56.5 -40
t-57.5 -30t-57.5 -23.5v-2q90 -8 132 -48.5t42 -99.5q0 -88 -83.5 -155.5t-207.5 -67.5q-103 0 -153 48t-50 103q0 52 30 80.5t63 28.5q28 0 45.5 -17.5t17.5 -48.5t-16 -53t-42 -25q4 -40 31 -61.5t62 -21.5q61 0 106 56.5t45 133.5q0 36 -11 62t-28 37t-31.5 15.5
t-28.5 4.5q-40 0 -79 -31z" />
    <glyph glyph-name="four" unicode="4" 
d="M174 -8l4 45q14 -6 22 -6q31 0 52 25q9 29 33 147q-37 3 -76 3q-100 0 -153 -21q-10 -4 -17 -13.5t-7 -13.5q0 -3 2 -7l-42 17q33 77 101.5 180.5t125 177.5t144.5 184q20 -22 68 -22q12 0 86 6q-29 -107 -91 -411q28 -1 116 -13q1 7 1 22q0 38 -15 77l39 13
q12 -30 12 -83q0 -64 -16 -122q-79 17 -154 18q-21 -101 -21 -143q23 -21 44 -21q7 0 21 6l-12 -45q-78 8 -119 8q-76 0 -148 -8zM264 290h39q27 131 59 347l-2 2q-179 -224 -273 -370q86 21 177 21z" />
    <glyph glyph-name="five" unicode="5" 
d="M124 350l64 352q142 -35 265 -35q127 0 127 35q0 5 -1 8l40 -23q-43 -84 -52 -106q-73 -22 -165 -22q-88 0 -187 19l-41 -198q62 43 147 43q62 0 107.5 -18.5t69 -48.5t34 -60.5t10.5 -61.5q0 -27 -8 -57t-29 -65.5t-53.5 -63.5t-87 -46.5t-123.5 -18.5q-88 0 -138 39
t-50 103q0 39 26 75t70 36q33 0 50.5 -18.5t17.5 -45.5q0 -39 -26 -59.5t-54 -20.5q6 -39 33 -57.5t61 -18.5q71 0 115 67t44 157q0 56 -29 98.5t-85 42.5q-88 0 -120 -95l-45 9q5 12 13 55z" />
    <glyph glyph-name="six" unicode="6" 
d="M581 756l10 -52q-81 -1 -149.5 -38t-112.5 -94.5t-75.5 -129t-45 -138t-13.5 -123.5q0 -68 23.5 -115t66.5 -47q46 0 80 52.5t47 115t13 119.5q0 118 -54 118q-39 0 -68.5 -54t-33.5 -119l-48 23q3 12 8.5 29.5t20 47.5t33 54.5t49.5 42.5t67 18q83 0 124.5 -61.5
t41.5 -141.5q0 -33 -8 -68.5t-28.5 -74t-50 -68.5t-77.5 -49.5t-107 -19.5q-67 0 -116.5 23t-76 61.5t-38.5 80.5t-12 87q0 186 140 326t390 195z" />
    <glyph glyph-name="seven" unicode="7" 
d="M596 702l45 -14q-20 -49 -75.5 -145t-96.5 -159q-157 -242 -190 -392q-66 8 -100 8q-30 0 -90 -8q41 94 95.5 170t149.5 186q33 39 100.5 114.5t100.5 113.5l-2 2q-75 -22 -164 -22q-48 0 -125.5 8.5t-88.5 13.5q0 -92 49 -147l-47 -26q-44 124 -44 214q0 25 7 83
q195 -38 314 -38q68 0 104 4.5t47 12t11 21.5z" />
    <glyph glyph-name="eight" unicode="8" 
d="M35 164q0 45 21 81.5t53.5 57t60.5 31.5t53 16v2q-57 17 -91.5 59.5t-34.5 97.5q0 81 72.5 141t197.5 60q106 0 168 -46t62 -119q0 -60 -48 -116.5t-146 -76.5v-2q138 -39 138 -151q0 -34 -16 -70t-48 -69.5t-89.5 -55t-130.5 -21.5q-91 0 -156.5 47t-65.5 134zM449 557
q0 49 -21 83t-67 34q-48 0 -82 -54.5t-34 -131.5q0 -48 22.5 -83t59.5 -45q52 14 87 71.5t35 125.5zM183 140q0 -57 23 -92t58 -35q31 0 57 23t41 56t23 65.5t8 56.5q0 100 -89 124q-55 -13 -88 -68t-33 -130z" />
    <glyph glyph-name="nine" unicode="9" 
d="M49 -63l-10 52q81 1 149.5 38t112.5 94.5t75.5 129t45 138t13.5 123.5q0 68 -23.5 115t-66.5 47q-46 0 -80 -52.5t-47 -115t-13 -119.5q0 -118 54 -118q39 0 68.5 54t33.5 119l48 -23q-3 -12 -8.5 -29.5t-20 -47.5t-33 -54.5t-49.5 -42.5t-67 -18q-83 0 -124.5 61.5
t-41.5 141.5q0 33 8 68.5t28.5 74t50 68.5t77.5 49.5t107 19.5q67 0 116.5 -23t76 -61.5t38.5 -80.5t12 -87q0 -186 -140 -326t-390 -195z" />
    <glyph glyph-name="colon" unicode=":" horiz-adv-x="296" 
d="M93 375q0 38 22.5 67.5t58.5 29.5q35 0 53 -20t18 -50q0 -40 -25 -69.5t-65 -29.5q-27 0 -44.5 17.5t-17.5 54.5zM34 57q0 38 22.5 67.5t58.5 29.5q35 0 53 -20t18 -50q0 -40 -25 -69.5t-65 -29.5q-27 0 -44.5 17.5t-17.5 54.5z" />
    <glyph glyph-name="semicolon" unicode=";" horiz-adv-x="296" 
d="M27 -160l-19 32q15 6 28 13t23.5 16t19 16t16.5 17.5t12.5 16t10.5 17t8 14.5t7 14l5 12l-2 2q-22 -19 -49 -19t-41.5 21t-14.5 49q0 36 23.5 64.5t61.5 28.5q40 0 57.5 -29.5t17.5 -61.5q0 -51 -42 -115.5t-122 -107.5zM93 375q0 38 22.5 67.5t58.5 29.5q35 0 53 -20
t18 -50q0 -40 -25 -69.5t-65 -29.5q-27 0 -44.5 17.5t-17.5 54.5z" />
    <glyph glyph-name="less" unicode="&#x3c;" horiz-adv-x="600" 
d="M553 88v-96l-506 215v92l506 215v-96l-392 -165z" />
    <glyph glyph-name="equal" unicode="=" horiz-adv-x="600" 
d="M47 307v96h506v-96h-506zM47 103v96h506v-96h-506z" />
    <glyph glyph-name="greater" unicode="&#x3e;" horiz-adv-x="600" 
d="M47 -8v96l392 165l-392 165v96l506 -215v-92z" />
    <glyph glyph-name="question" unicode="?" horiz-adv-x="556" 
d="M385 254l11 -39q-3 0 -21 -1.5t-27 -1.5q-38 0 -81.5 8t-82.5 31t-39 57q0 7 2 14.5t6.5 14.5t8.5 12.5t12 13t13 11.5t15.5 11.5t15 10.5t16.5 10.5t15 9.5l57 36q121 76 121 145q0 31 -25 56.5t-76 25.5q-26 0 -45 -7.5t-29 -21.5t-14 -22.5t-7 -20.5q26 -6 36 -22.5
t10 -31.5q0 -33 -23.5 -53.5t-59.5 -20.5q-32 0 -54.5 21t-22.5 61q0 17 10.5 40t34 50t72 45.5t113.5 18.5q117 0 170.5 -42t53.5 -95q0 -104 -176 -188q-131 -62 -131 -108q0 -17 18.5 -27t48.5 -10q29 0 54 9zM146 57q0 39 23 68t60 29q35 0 52 -20t17 -50
q0 -40 -25 -69.5t-63 -29.5q-28 0 -46 18t-18 54z" />
    <glyph glyph-name="at" unicode="@" horiz-adv-x="800" 
d="M347 292q0 -87 55 -87q42 0 80.5 57t38.5 146q0 27 -13.5 44t-39.5 17q-42 0 -81.5 -54.5t-39.5 -122.5zM655 95l12 -58q-98 -58 -226 -58q-171 0 -279.5 104t-108.5 264q0 155 106 261.5t274 106.5q155 0 255.5 -87.5t100.5 -226.5q0 -108 -53.5 -185t-148.5 -77
q-78 0 -102 74h-2q-45 -74 -124 -74q-44 0 -80 31.5t-36 103.5q0 56 23 113.5t72.5 99.5t112.5 42q32 0 55.5 -14t34.5 -38h2l9 38h89l-65 -251q-7 -37 -7 -44q0 -33 38 -33q44 0 79 62.5t35 141.5q0 116 -78.5 190t-208.5 74q-51 0 -99 -20t-87.5 -58.5t-63.5 -102.5
t-24 -144q0 -122 83 -204.5t201 -82.5q124 0 211 52z" />
    <glyph glyph-name="A" unicode="A" horiz-adv-x="722" 
d="M-12 -8l12 45q9 -3 17 -3q19 0 37 21t44 67q44 78 137.5 252t145.5 264q-35 25 -70 25q-2 0 -32 -6l12 45q92 -8 140 -8q52 0 138 8q-6 -22 -6 -47q0 -71 21 -238l45 -358q19 -25 37 -25q14 0 23 3l-12 -45q-90 8 -136 8q-56 0 -164 -8l12 45q9 -3 23 -3q29 0 67 22
q0 101 -11 208h-234q-64 -146 -74 -205q32 -25 69 -25q15 0 26 3l-12 -45q-84 8 -127 8q-44 0 -128 -8zM251 300h212q-12 115 -52 316h-2q-89 -168 -158 -316z" />
    <glyph glyph-name="B" unicode="B" horiz-adv-x="722" 
d="M490 205q0 52 -29 91.5t-93 39.5q-34 0 -69 -7q-27 -108 -47 -273q37 -31 92 -31q46 0 81 32.5t50 72.5t15 75zM6 -8l12 45q16 -4 23 -3q27 0 53 23q35 128 70.5 302.5t41.5 274.5q-35 29 -55 29q-9 0 -18 -6l12 45q76 -8 143 -8q26 0 80 4t83 4q121 0 181.5 -42
t60.5 -113q0 -69 -57 -117t-135 -75v-2q52 -8 98.5 -46.5t46.5 -104.5q0 -36 -17 -72t-49.5 -67.5t-88.5 -51t-126 -19.5q-35 0 -103 4q-70 4 -104 4q-62 0 -152 -8zM537 562q0 46 -23 76.5t-71 30.5q-36 0 -64 -21q-38 -125 -72 -282q27 3 65 3q26 0 51 -3q45 26 79.5 81.5
t34.5 114.5z" />
    <glyph glyph-name="C" unicode="C" horiz-adv-x="685" 
d="M633 169l37 -37q-127 -153 -300 -153q-139 0 -218.5 90.5t-79.5 238.5q0 58 15 114.5t47.5 110t80 93.5t117 64.5t153.5 24.5q31 0 93 -4t93 -4q18 0 58 8q-46 -163 -55 -268h-52q19 23 19 86q0 73 -21 108q-48 38 -125 38q-64 0 -116 -37t-83 -96.5t-47.5 -129
t-16.5 -140.5q0 -52 9.5 -95.5t29.5 -79.5t57.5 -56.5t88.5 -20.5q33 0 69 10.5t79.5 45.5t67.5 89z" />
    <glyph glyph-name="D" unicode="D" horiz-adv-x="833" 
d="M3 -8l12 45q16 -4 23 -3q27 0 53 23q35 128 70.5 302.5t41.5 274.5q-35 29 -55 29q-9 0 -18 -6l12 45q58 -8 146 -8q31 0 101.5 4t97.5 4q140 0 225 -75t85 -226q0 -52 -14 -106t-46 -109t-79 -97.5t-119.5 -69.5t-160.5 -27q-43 0 -111.5 4t-98.5 4q-29 0 -165 -8z
M641 439q0 26 -3 52t-13.5 59.5t-27.5 58.5t-48.5 42.5t-72.5 17.5q-57 0 -105 -31q-34 -106 -77 -302.5t-48 -278.5q77 -35 124 -35q66 0 119.5 39.5t85.5 102t49 134t17 141.5z" />
    <glyph glyph-name="E" unicode="E" horiz-adv-x="630" 
d="M3 -8l12 45q16 -4 23 -3q27 0 53 23q35 128 70.5 302.5t41.5 274.5q-35 29 -55 29q-9 0 -18 -6l12 45q72 -8 200 -8q110 0 328 8q-45 -145 -47 -227h-52q22 46 22 85q0 40 -22 75q-63 25 -119 25q-43 0 -83 -20q-17 -55 -39.5 -150t-28.5 -116q89 6 115 16
q28 17 41.5 42.5t13.5 42.5q0 10 -2 16h48q-16 -31 -36 -128.5t-22 -159.5h-45q12 16 12 47q0 37 -19 75q-25 13 -114 16q-39 -168 -48 -284q43 -23 102 -23q67 0 123 18q39 37 58.5 80.5t19.5 72.5q0 11 -3 17h48q-39 -138 -47 -230q-132 8 -304 8q-115 0 -239 -8z" />
    <glyph glyph-name="F" unicode="F" horiz-adv-x="593" 
d="M3 -8l12 45q16 -4 23 -3q27 0 53 23q35 128 70.5 302.5t41.5 274.5q-35 29 -55 29q-9 0 -18 -6l12 45q70 -8 243 -8q226 0 278 8q-32 -90 -51 -228h-48q19 35 19 79q0 46 -20 83q-61 24 -107 24q-47 0 -87 -20q-26 -85 -73 -288q56 -1 118 13q25 18 43 47t18 53
q0 7 -3 13h48q-28 -84 -45 -175t-19 -135h-42q12 36 12 60q0 22 -24 75q-33 16 -86 16q-17 0 -27 -1q-32 -163 -43 -259q36 -25 70 -25q15 0 27 3l-12 -45q-58 8 -171 8q-67 0 -157 -8z" />
    <glyph glyph-name="G" unicode="G" horiz-adv-x="759" 
d="M771 306l-12 -45q-18 6 -21 6q-16 0 -57 -29q-37 -99 -47 -241l-24 3h-25q-6 0 -76 -9q-70 -12 -128 -12q-76 0 -134.5 27t-93.5 72.5t-53 101.5t-18 119q0 78 27 150.5t78 133t136 96.5t192 36q31 0 91 -4t91 -4q18 0 77 8q-41 -122 -58 -270h-55q22 39 22 91
q0 30 -25 99q-68 41 -131 41q-60 0 -110 -28t-81.5 -72t-53.5 -99.5t-31 -108.5t-9 -101q0 -131 48.5 -191.5t132.5 -60.5q36 0 76 18q29 75 38 209q-22 25 -47 25l-24 -6l12 45q85 -8 132 -8q52 0 161 8z" />
    <glyph glyph-name="H" unicode="H" horiz-adv-x="815" 
d="M-6 -8l12 45q17 -4 31 -3q19 0 45 23q35 128 70.5 302.5t41.5 274.5q-35 29 -55 29q-9 0 -18 -6l12 45q76 -8 153 -8q76 0 168 8l-12 -45q-9 6 -19 6q-27 0 -64 -29q-36 -124 -63 -260h284q19 103 38 260q-36 29 -54 29q-12 0 -22 -6l12 45q74 -8 158 -8q96 0 166 8
l-12 -45q-7 6 -17 6q-17 0 -63 -31q-30 -95 -74 -287.5t-51 -289.5q25 -21 43 -21q14 0 28 3l-12 -45q-92 8 -140 8q-75 0 -163 -8l12 45q12 -3 29 -3q22 0 52 23q23 73 62 278h-286q-41 -178 -48 -281q18 -20 43 -20q17 0 26 3l-12 -45q-62 8 -142 8q-93 0 -159 -8z" />
    <glyph glyph-name="I" unicode="I" horiz-adv-x="407" 
d="M3 -8l12 45q16 -4 29 -3q21 0 47 23q35 128 70.5 302.5t41.5 274.5q-35 29 -55 29q-9 0 -18 -6l12 45q76 -8 153 -8q76 0 168 8l-12 -45q-9 6 -19 6q-27 0 -64 -29q-32 -103 -72.5 -289.5t-48.5 -290.5q18 -20 49 -20q11 0 20 3l-12 -45q-62 8 -142 8q-93 0 -159 -8z" />
    <glyph glyph-name="J" unicode="J" horiz-adv-x="389" 
d="M106 657l12 45q88 -8 157 -8q58 0 182 8l-11 -45q-10 6 -21 6q-19 0 -58 -29q-41 -110 -74.5 -298t-40.5 -267q-65 -108 -134 -182.5t-166 -130.5l-19 51q6 -3 13 -3q8 0 21 6t33 25.5t39 49t37.5 82t29.5 119.5q17 104 48.5 284t45.5 264q-40 29 -65 29q-19 0 -29 -6z
" />
    <glyph glyph-name="K" unicode="K" horiz-adv-x="722" 
d="M3 -8l12 45q16 -4 23 -3q27 0 53 23q35 128 70.5 302.5t41.5 274.5q-35 29 -55 29q-9 0 -18 -6l12 45q76 -8 153 -8q76 0 168 8l-12 -45q-9 6 -19 6q-27 0 -64 -29q-32 -104 -78 -314q110 43 181 120t128 194q-50 29 -68 29q-15 0 -25 -6l12 45q76 -8 125 -8q63 0 139 8
l-12 -45q-10 6 -18 6q-26 0 -104 -92q-35 -42 -156 -167q2 -6 13 -37.5t22.5 -60.5t28 -70t33 -74t35 -63.5t37.5 -47.5t36 -17q14 0 23 3l-12 -45q-66 8 -99 8q-32 0 -98 -8q-62 110 -137 333q-20 -14 -92 -38q-35 -168 -35 -233q18 -20 49 -20q11 0 20 3l-12 -45
q-62 8 -142 8q-93 0 -159 -8z" />
    <glyph glyph-name="L" unicode="L" horiz-adv-x="574" 
d="M-6 -8l12 45q16 -4 23 -3q27 0 53 23q35 128 70.5 302.5t41.5 274.5q-35 29 -55 29q-9 0 -18 -6l12 45q64 -8 144 -8q81 0 181 8l-12 -45q-10 6 -26 6q-26 0 -59 -28q-38 -125 -73 -294t-48 -285q31 -22 76 -22q44 0 111 21q40 42 67 95.5t27 96.5q0 13 -2 19h52
q-9 -14 -26.5 -93t-30.5 -181q-120 8 -241 8q-165 0 -279 -8z" />
    <glyph glyph-name="M" unicode="M" horiz-adv-x="963" 
d="M-9 -8l12 45q5 -3 18 -3q36 0 49.5 24t44.5 125q63 210 120 440q-36 40 -68 40q-16 0 -31 -6l12 45q66 -8 130 -8q66 0 134 8q-9 -16 -9 -42q0 -100 67 -502h2l102 188q63 116 109 220.5t46 122.5q0 7 -3 13q64 -8 123 -8q72 0 158 8l-12 -45q-7 6 -22 6q-18 0 -30 -7
t-33 -25q-93 -363 -110 -575q24 -22 45 -22q16 0 25 3l-12 -45q-78 8 -143 8q-72 0 -156 -8l12 45q6 -3 21 -3q28 0 59 27q12 45 27 119.5t25.5 134t25.5 150t21 123.5h-2q-195 -367 -337 -596h-34q-76 349 -110 596h-2q-1 -5 -19 -81t-23 -97.5t-19 -87t-19.5 -100
t-12 -81.5t-8.5 -83q15 -11 20 -14t16.5 -6.5t24.5 -3.5t27 3l-12 -45q-62 8 -115 9q-63 -1 -134 -9z" />
    <glyph glyph-name="N" unicode="N" horiz-adv-x="778" 
d="M115 657l11 45q82 -8 122 -8q76 0 124 8q0 -90 216 -536h2q24 118 33.5 168t20 138t10.5 162q-48 29 -72 29q-10 0 -28 -6l13 45q74 -8 140 -8t140 8l-11 -45q-12 6 -20 6q-25 0 -56 -29q-65 -150 -152 -555l-21 -96h-59q-190 389 -280 602h-2q-29 -124 -49.5 -244
t-27.5 -182t-7 -83q0 -7 2 -17q33 -25 64 -25q16 0 32 3l-12 -45q-68 8 -125 8q-52 0 -132 -8l12 45q6 -3 21 -3q27 0 39 20t37 102q22 71 60.5 231t52.5 239q-13 15 -34 26t-37 11q-14 0 -27 -6z" />
    <glyph glyph-name="O" unicode="O" horiz-adv-x="815" 
d="M786 423q0 -112 -50.5 -212.5t-150 -166t-226.5 -65.5q-135 0 -206 89.5t-71 233.5q0 170 123.5 291.5t290.5 121.5q138 0 214 -80t76 -212zM238 233q0 -54 10 -101t40.5 -85t78.5 -38q59 0 110.5 50.5t83.5 124.5t50.5 150.5t18.5 134.5q0 213 -138 213
q-78 0 -138 -75.5t-88 -175.5t-28 -198z" />
    <glyph glyph-name="P" unicode="P" horiz-adv-x="667" 
d="M-6 -8l12 45q16 -4 23 -3q27 0 53 23q35 128 70.5 302.5t41.5 274.5q-35 29 -55 29q-9 0 -18 -6l12 45q92 -8 140 -8q29 0 93 4t95 4q103 0 170 -46t67 -143q0 -94 -88.5 -163t-216.5 -69q-51 0 -119 12q-37 -189 -38 -233q35 -26 64 -26q18 0 29 3l-12 -45q-74 8 -156 8
q-75 0 -167 -8zM542 540q0 61 -28 95t-78 34q-31 0 -74 -25q-54 -204 -76 -302q36 -28 80 -28t80 25t55.5 61.5t30 73t10.5 66.5z" />
    <glyph glyph-name="Q" unicode="Q" horiz-adv-x="833" 
d="M878 -120l-3 -39q-26 -11 -68 -11q-77 0 -129 42t-52 89q0 33 17 55.5t49 24.5q-9 34 -41 55q-122 -117 -292 -117q-135 0 -206 89.5t-71 233.5q0 170 123.5 291.5t290.5 121.5q134 0 212 -81t78 -211q0 -78 -27.5 -155.5t-75.5 -136.5q37 -21 66 -60t29 -87
q0 -28 -16 -49t-44 -25q6 -19 34.5 -34.5t55.5 -15.5q42 0 70 20zM238 233q0 -54 9 -93q21 23 70.5 44t113.5 21q71 0 129 -21q25 52 47.5 130.5t22.5 154.5q0 213 -138 213q-78 0 -138 -75.5t-88 -175.5t-28 -198zM539 142q-53 24 -109 24q-54 0 -99.5 -24.5t-45.5 -68.5
q0 -30 25 -47t57 -17q96 0 172 133z" />
    <glyph glyph-name="R" unicode="R" horiz-adv-x="741" 
d="M3 -8l12 45q16 -4 23 -3q27 0 53 23q35 128 70.5 302.5t41.5 274.5q-35 29 -55 29q-9 0 -18 -6l12 45q86 -8 129 -8q29 0 95 4t99 4q239 0 239 -168q0 -39 -18.5 -75.5t-46 -61t-51.5 -40.5t-43 -23l26 -71q16 -47 28 -77.5t31.5 -70.5t41.5 -60.5t46 -20.5q12 0 20 3
l-12 -45q-60 8 -98 8q-40 0 -100 -8q-71 150 -120 314q-32 -3 -59 -3q-26 0 -59 3q-39 -207 -42 -248q18 -24 49 -24q12 0 21 3l-12 -45q-78 8 -147 8q-74 0 -156 -8zM548 549q0 58 -27 89t-71 31q-41 0 -76 -23q-41 -138 -74 -293q46 -17 85 -17q21 0 58 7q45 33 75 91.5
t30 114.5z" />
    <glyph glyph-name="S" unicode="S" horiz-adv-x="574" 
d="M83 237h48q-21 -44 -21 -89q0 -40 17 -88q42 -35 113 -35q49 0 89.5 36.5t40.5 103.5q0 47 -26.5 73.5t-109.5 68.5q-58 29 -93.5 73t-34.5 101q0 35 14 72.5t43.5 75t87.5 62t134 24.5q26 0 78 -4q50 -4 77 -4q18 0 47 8q-27 -88 -37.5 -134.5t-17.5 -114.5h-48
q18 50 18 86q0 37 -24 93q-48 31 -97 31q-64 0 -97.5 -38t-33.5 -90q0 -76 74 -121l59 -36q73 -44 102 -81t29 -94q0 -35 -15.5 -72t-46.5 -72t-85.5 -57.5t-123.5 -22.5q-23 0 -68.5 4t-67.5 4t-76 -8q49 158 52 245z" />
    <glyph glyph-name="T" unicode="T" horiz-adv-x="630" 
d="M94 -8l12 45q14 -3 25 -3q31 0 62 24q37 124 68.5 289.5t45.5 298.5q-40 14 -59 14q-21 0 -47 -7q-85 -93 -85 -205h-52q28 103 51 254q188 -8 281 -8q168 0 296 8q-18 -55 -35.5 -131t-18.5 -123h-56q26 51 26 104q0 54 -19 100q-24 8 -50 8q-37 0 -63 -14
q-93 -317 -128 -590q30 -22 57 -22q13 0 24 3l-12 -45q-76 8 -160 8q-53 0 -163 -8z" />
    <glyph glyph-name="U" unicode="U" horiz-adv-x="815" 
d="M104 657l12 45q92 -8 139 -8q62 0 188 8l-12 -45q-9 6 -21 6q-13 0 -23.5 -4t-16.5 -8.5t-20 -16.5q-40 -107 -72 -237t-32 -223q0 -48 23 -79t75 -31q44 0 92.5 27t83.5 67q20 76 51 243t35 233q-35 29 -55 29q-9 0 -18 -6l12 45q76 -8 153 -8q76 0 168 8l-12 -45
q-9 6 -19 6q-27 0 -64 -29q-32 -103 -72.5 -289.5t-48.5 -290.5q18 -20 49 -20q11 0 20 3l-12 -45q-74 8 -107 8q-30 0 -112 -8q6 22 13.5 63t11.5 57l-2 2q-124 -122 -256 -122q-69 0 -111 42t-42 118q0 28 4 60.5t7 51t12.5 63t12.5 58.5q37 187 43 249q-24 29 -53 29
q-9 0 -24 -6z" />
    <glyph glyph-name="V" unicode="V" horiz-adv-x="704" 
d="M86 657l11 45q128 -8 143 -8q89 0 184 8l-12 -45q-10 6 -30 6q-23 0 -71 -25q0 -43 3 -92t6 -81t12.5 -94.5t12 -79.5t16 -93.5t14.5 -82.5h2q210 373 240 523q-32 25 -67 25q-12 0 -30 -6l11 45q123 -8 137 -8q70 0 136 8l-11 -45q-7 6 -15 6q-23 0 -55 -41t-88 -141
q-215 -383 -304 -502h-68q-21 103 -50.5 282t-34.5 205q-25 137 -30 153q-14 44 -42 44q-6 0 -20 -6z" />
    <glyph glyph-name="W" unicode="W" horiz-adv-x="1037" 
d="M81 657l12 45q56 -8 140 -8q56 0 168 8l-12 -45q-9 6 -23 6q-27 0 -65 -32q-3 -42 -2 -85q0 -61 12.5 -185.5t29.5 -217.5h2q33 53 102 191.5t101 224.5q-19 104 -70 104q-10 0 -21 -6l12 45q102 -8 152 -8q56 0 168 8l-12 -45q-9 6 -19 6q-26 0 -68 -32q-5 -14 -5 -57
l1 -28q2 -39 19 -181t32 -222h2q60 101 130.5 254.5t82.5 236.5q-42 29 -61 29q-13 0 -22 -6l12 45q84 -8 127 -8q45 0 131 8l-12 -45q-5 6 -13 6q-24 0 -58.5 -45t-89.5 -147q-152 -283 -288 -492h-48q-59 334 -70 493h-3q-131 -274 -275 -493h-48q-16 85 -54 385
q-27 210 -32 236q-5 28 -19 45.5t-30 17.5q-9 0 -16 -6z" />
    <glyph glyph-name="X" unicode="X" horiz-adv-x="722" 
d="M101 657l11 45q64 -8 154 -8q114 0 196 8l-12 -45q-11 6 -22 6q-26 0 -69 -33q20 -62 85 -226q23 19 87.5 103.5t80.5 130.5q-39 25 -69 25q-13 0 -27 -6l14 45q74 -8 129 -8q46 0 134 8l-12 -45q-11 6 -21 6q-26 0 -139 -121l-162 -173l67 -153q36 -83 61.5 -124.5
t38.5 -49.5t31 -8q12 0 21 3l-12 -45q-80 8 -151 8q-95 0 -167 -8l12 45q9 -3 21 -3q33 0 61 22q-4 24 -34 96l-60 143l-65 -69q-4 -5 -31.5 -37.5t-37.5 -45t-27 -38.5t-28 -49q26 -22 66 -22q13 0 30 3l-12 -45q-54 8 -141 8q-88 0 -122 -8l12 45q6 -3 15 -3q25 0 83 51.5
t170 166.5l74 76l-18 41q-70 160 -112.5 227t-81.5 67q-10 0 -21 -6z" />
    <glyph glyph-name="Y" unicode="Y" horiz-adv-x="685" 
d="M143 -8l12 45q9 -3 23 -3q26 0 57 23q40 164 54 234l-102 266q-30 77 -37 84q-22 22 -45 22q-9 0 -19 -6l12 45q60 -8 160 -8q101 0 175 8l-12 -45q-12 6 -24 6q-29 0 -72 -29q23 -140 93 -303q116 146 185 307q-37 25 -69 25q-12 0 -28 -6l12 45q66 -8 127 -8
q76 0 138 8l-12 -45q-7 6 -15 6q-15 0 -35 -16t-33 -31.5t-34 -43t-23 -30.5l-203 -251q-33 -144 -39 -236q21 -21 49 -21q12 0 22 3l-12 -45q-62 8 -147 8q-82 0 -158 -8z" />
    <glyph glyph-name="Z" unicode="Z" horiz-adv-x="630" 
d="M0 -8l6 30q263 317 450 616q-48 22 -101 22q-68 0 -136 -25q-37 -31 -57 -82t-20 -87q0 -4 1.5 -10.5t1.5 -8.5h-56q12 24 28.5 113.5t23.5 141.5q118 -8 246 -8q160 0 298 8l-6 -30q-164 -199 -267.5 -335t-197.5 -281q44 -22 108 -22q83 0 149 22q74 77 74 171
q0 5 -3 20h52q-31 -102 -51 -255q-120 8 -242 8q-181 0 -301 -8z" />
    <glyph glyph-name="bracketleft" unicode="[" horiz-adv-x="389" 
d="M395 668h-48q-42 -142 -100.5 -416.5t-82.5 -443.5h37q8 0 17 0.5t20 1.5t17 1l-10 -45q-11 1 -48.5 4.5t-57.5 3.5q-36 0 -102 -8q58 212 110 474t76 470q101 -8 114 -8q12 0 113 8l-9 -45q-23 3 -46 3z" />
    <glyph glyph-name="backslash" unicode="\" horiz-adv-x="407" 
d="M60 693l86 44q21 -89 65 -217l123 -357q38 -114 66 -165l-75 -38q-25 85 -54 165l-138 388q-43 120 -73 180z" />
    <glyph glyph-name="bracketright" unicode="]" horiz-adv-x="389" 
d="M-6 -192h48q42 142 100.5 416.5t82.5 443.5h-37q-8 0 -17 -0.5t-20 -1.5t-17 -1l10 45q11 -1 48.5 -4.5t57.5 -3.5q36 0 102 8q-58 -212 -110 -474t-76 -470q-101 8 -114 8q-12 0 -113 -8l9 45q22 -3 46 -3z" />
    <glyph glyph-name="asciicircum" unicode="^" horiz-adv-x="600" 
d="M94 329l178 365h96l178 -365h-96l-130 264l-130 -264h-96z" />
    <glyph glyph-name="underscore" unicode="_" horiz-adv-x="500" 
d="M0 -125v50h500v-50h-500z" />
    <glyph glyph-name="grave" unicode="`" horiz-adv-x="278" 
d="M274 554l-27 -27q-21 38 -73.5 71t-142.5 73q38 17 55.5 28.5t46.5 37.5q43 -70 67.5 -102.5t73.5 -80.5z" />
    <glyph glyph-name="a" unicode="a" horiz-adv-x="611" 
d="M563 161l31 -14q-23 -53 -74.5 -108.5t-111.5 -55.5q-34 0 -52 23t-18 58q0 32 7 57l-2 2q-24 -32 -36 -46.5t-39 -41.5t-56 -39.5t-62 -12.5q-106 0 -106 165q0 29 6.5 66.5t26.5 85.5t50.5 86.5t84 65.5t120.5 27q30 0 84 -10t74 -10q21 0 63 10q-23 -71 -59.5 -218
t-36.5 -188q0 -24 11 -24q26 0 56.5 43t38.5 79zM355 182q35 166 50 229q-31 38 -71 38q-39 0 -70.5 -37t-49 -90.5t-27 -105.5t-9.5 -91q0 -94 27 -94q28 0 78.5 52.5t71.5 98.5z" />
    <glyph glyph-name="b" unicode="b" horiz-adv-x="556" 
d="M79 646l9 42q117 0 221 32q-17 -54 -29 -108l-65 -259l2 -2q56 70 92 96q45 32 90 32q52 0 81 -43.5t29 -109.5q0 -148 -84.5 -245.5t-215.5 -97.5q-31 0 -58 6.5t-52.5 21.5t-40 44t-14.5 70q0 32 16 104l53 239q26 117 31 164q-22 20 -44 20q-7 0 -21 -6zM166 75
q0 -65 50 -65q40 0 72 40t49 98t26 113t9 95q0 67 -28 67q-29 0 -73.5 -49t-71.5 -95q-33 -132 -33 -204z" />
    <glyph glyph-name="c" unicode="c" horiz-adv-x="500" 
d="M444 170l35 -18q-7 -15 -25.5 -39t-50.5 -55.5t-82 -53t-104 -21.5q-47 0 -82 15.5t-54 42.5t-28 57.5t-9 65.5q0 124 83 219.5t214 95.5q65 0 101 -26t36 -75q0 -44 -25.5 -73t-56.5 -29q-27 0 -42.5 18t-15.5 45q0 25 12.5 47.5t36.5 32.5q-8 27 -49 27t-72.5 -32
t-48.5 -80t-25 -94.5t-8 -84.5q0 -57 24.5 -90.5t68.5 -33.5q53 0 101.5 42t65.5 97z" />
    <glyph glyph-name="d" unicode="d" horiz-adv-x="611" 
d="M383 646l9 42q106 0 222 32q-42 -139 -96 -359t-54 -294q0 -24 15 -24q20 0 48.5 36t35.5 82l33 -13q-30 -68 -77 -116.5t-100 -48.5q-77 0 -77 94q0 3 5 45l-2 2l-11 -15q-12 -15 -17.5 -21.5t-19.5 -22t-24 -24.5t-26 -21.5t-30 -19.5t-32 -12t-35 -5q-54 0 -80 46.5
t-26 111.5q0 39 8 81.5t29 89t52 83t81.5 60.5t112.5 24q34 0 88 -13l36 170q-19 16 -45 16q-9 0 -23 -6zM357 185l47 225q-28 39 -70 39q-39 0 -70.5 -37t-49 -90.5t-27 -105.5t-9.5 -91q0 -94 25 -94q34 0 82 53t72 101z" />
    <glyph glyph-name="e" unicode="e" horiz-adv-x="519" 
d="M377 384q0 37 -11.5 51t-36.5 14q-43 0 -76.5 -44t-49 -97.5t-19.5 -104.5q26 -8 45 -8q37 0 67 21.5t46.5 52.5t25.5 61.5t9 53.5zM449 148l33 -21q-106 -144 -261 -144q-91 0 -134 49t-43 135q0 121 81.5 216.5t198.5 95.5q28 0 54 -6t52 -19.5t41.5 -41t15.5 -65.5
q0 -76 -87 -131q-82 -51 -216 -48v-13q0 -59 28 -93t78 -34q46 0 92 35t67 85z" />
    <glyph glyph-name="f" unicode="f" horiz-adv-x="333" 
d="M31 398l9 39h93q59 278 235 278q46 0 66 -22.5t20 -48.5q0 -38 -23 -60t-49 -22q-21 0 -35.5 13t-14.5 38q0 39 32 57q-2 12 -18 12q-28 0 -44.5 -47t-37.5 -179l-3 -19h99l-9 -39h-95q-4 -36 -33 -200q-12 -65 -33 -134t-54.5 -142t-82.5 -119.5t-105 -46.5
q-33 0 -51 19t-18 46q0 26 19.5 49t48.5 23q19 0 32 -13t13 -34q0 -37 -31 -54q6 -6 16 -6q66 0 104 296l17 132q14 113 27 184h-94z" />
    <glyph glyph-name="g" unicode="g" horiz-adv-x="556" 
d="M36 143q0 44 11 89.5t35 90t57.5 79t82 56t105.5 21.5q26 0 72 -8q41 -9 76 -9q46 0 72 7q-64 -200 -97 -414q-10 -68 -35 -121t-56 -86t-69 -54.5t-73.5 -29.5t-70.5 -8q-60 0 -105.5 25.5t-45.5 74.5q0 33 18 53t50 20q24 0 40.5 -16t16.5 -43q0 -19 -11 -35.5
t-27 -19.5q3 -15 20 -23.5t41 -8.5q42 0 76.5 28.5t54 66t35 91t21.5 85.5t10 67l-2 2q-31 -48 -85 -94t-115 -46q-32 0 -53.5 16.5t-31.5 43.5t-13.5 51t-3.5 49zM170 97q0 -62 26 -62q35 0 81.5 51.5t73.5 100.5q9 95 48 222q-34 37 -76 37t-77.5 -50.5t-55.5 -130.5
t-20 -168z" />
    <glyph glyph-name="h" unicode="h" horiz-adv-x="593" 
d="M17 -8l122 566q8 37 10 74q-27 20 -45 20q-9 0 -21 -6l8 42q133 0 226 32q-26 -80 -43 -156l-53 -244l2 -2q48 71 108 116t116 45q73 0 73 -67q0 -34 -40.5 -170t-40.5 -176q0 -23 17 -23q19 0 48.5 37t35.5 78l36 -13q-16 -45 -71 -103.5t-123 -58.5q-39 0 -55 21.5
t-16 71.5q0 43 36 176t36 150q0 13 -10 13q-31 0 -89.5 -61t-79.5 -98q-51 -213 -59 -264q-36 8 -59 8q-33 0 -69 -8z" />
    <glyph glyph-name="i" unicode="i" horiz-adv-x="352" 
d="M51 297l-36 17q94 165 207 165q30 0 49 -17t19 -46q0 -20 -43.5 -166.5t-43.5 -177.5q0 -29 15 -29q21 0 48 31.5t42 83.5l33 -13q-6 -15 -17.5 -33.5t-36 -52t-61 -55t-77.5 -21.5q-28 0 -49.5 19t-21.5 64q0 50 36 179t36 156q0 14 -10 14q-24 0 -53.5 -44.5
t-35.5 -73.5zM196 617q0 34 21.5 62t59.5 28q29 0 44 -22t15 -51q0 -34 -21.5 -60.5t-54.5 -26.5q-30 0 -47 20t-17 50z" />
    <glyph glyph-name="j" unicode="j" horiz-adv-x="333" 
d="M-105 -179q0 33 21 53t46 20q21 0 34.5 -13.5t13.5 -36.5q0 -41 -34 -47q0 -14 14 -14q13 0 28.5 14t21.5 27q25 53 43 181q10 75 29.5 172t33 158.5t13.5 66.5q0 13 -11 13q-24 0 -52.5 -44t-35.5 -74l-36 17q94 165 207 165q30 0 49 -15t19 -44q0 -10 -5.5 -34t-18 -74
t-20.5 -85l-47 -200q-32 -132 -100.5 -201.5t-140.5 -69.5q-31 0 -51.5 18t-20.5 47zM205 617q0 34 21.5 62t59.5 28q59 0 59 -73q0 -34 -21.5 -60.5t-54.5 -26.5q-32 0 -48 19.5t-16 50.5z" />
    <glyph glyph-name="k" unicode="k" horiz-adv-x="574" 
d="M531 160l36 -12q-16 -50 -67 -107.5t-112 -57.5q-97 0 -97 185v41q0 21 -12 21q-35 0 -83 -38q-40 -172 -42 -200q-42 8 -64 8q-25 0 -67 -8q19 50 73 308.5t59 331.5q-27 20 -45 20q-9 0 -21 -6l8 42q133 0 226 32q-26 -80 -43 -156l-79 -340l2 -2q3 7 18.5 32t45 64
t62.5 74.5t75 61t79 25.5q34 0 50.5 -18.5t16.5 -45.5q0 -37 -28 -63.5t-57 -26.5q-25 0 -37 15t-12 37q0 19 6 34q-29 -5 -82 -52.5t-100 -116.5l2 -2q70 38 126 38q31 0 40.5 -9.5t9.5 -40.5q0 -6 -1 -26t-1 -39q0 -120 34 -120q22 0 49.5 37.5t31.5 79.5z" />
    <glyph glyph-name="l" unicode="l" horiz-adv-x="315" 
d="M86 646l9 42q77 0 126.5 6t97.5 26q-36 -95 -68 -254l-60 -298q-14 -74 -14 -102q0 -23 17 -23q19 0 48.5 37t35.5 78l32 -10q-16 -52 -66 -108.5t-116 -56.5q-76 0 -76 95q0 32 14 104l64 318q15 71 23 128q-29 24 -46 24q-9 0 -21 -6z" />
    <glyph glyph-name="m" unicode="m" horiz-adv-x="889" 
d="M845 156l33 -13q-7 -16 -18.5 -35.5t-35.5 -51t-60.5 -52.5t-77.5 -21q-72 0 -72 73q0 49 36 182.5t36 156.5q0 16 -11 16q-23 0 -70.5 -47.5t-90.5 -104.5q-49 -184 -64 -267q-42 8 -62 8q-22 0 -66 -8q19 51 54.5 207t35.5 194q0 18 -13 18q-20 0 -64.5 -45t-84.5 -109
q-48 -156 -65 -265q-42 8 -62 8q-23 0 -69 -8q25 85 56 218.5t31 175.5q0 25 -13 25q-19 0 -45.5 -37.5t-35.5 -84.5l-36 13q32 89 82 133t107 44q75 0 75 -79q0 -25 -10 -75l2 -2q43 65 99.5 110.5t101.5 45.5q42 0 58.5 -24.5t16.5 -56.5q0 -33 -15 -78l2 -2
q59 79 116.5 120t104.5 41q31 0 53 -17t22 -48q0 -24 -42 -158.5t-42 -192.5q0 -20 16 -20q20 0 48.5 33t38.5 80z" />
    <glyph glyph-name="n" unicode="n" horiz-adv-x="630" 
d="M583 158l36 -13q-16 -45 -71 -103.5t-123 -58.5q-71 0 -71 77q0 53 36 190t36 152q0 13 -10 13q-31 0 -89.5 -61t-79.5 -98q-10 -40 -61 -264q-36 8 -59 8q-33 0 -69 -8q25 83 55.5 217.5t30.5 176.5q0 25 -12 25q-19 0 -45.5 -36.5t-35.5 -85.5l-36 13q35 88 86.5 132.5
t101.5 44.5q35 0 52 -18t17 -48q0 -48 -8 -93l2 -2q48 71 108 116t116 45q29 0 51 -17t22 -52q0 -23 -40.5 -157.5t-40.5 -186.5q0 -23 17 -23q19 0 48.5 37t35.5 78z" />
    <glyph glyph-name="o" unicode="o" horiz-adv-x="574" 
d="M44 196q0 125 78 204t200 79q86 0 147 -50.5t61 -144.5q0 -74 -32.5 -141.5t-99.5 -113.5t-154 -46q-56 0 -97.5 21t-62.5 54.5t-30.5 68t-9.5 69.5zM181 138q0 -71 13 -99.5t50 -28.5q39 0 74.5 51t55 126t19.5 147q0 62 -20 88.5t-47 26.5q-60 0 -102.5 -94.5
t-42.5 -216.5z" />
    <glyph glyph-name="p" unicode="p" horiz-adv-x="593" 
d="M-54 -232l6 42q11 -6 20 -6q21 0 41 20q6 25 28.5 119.5t32.5 138.5t25 114.5t21.5 115.5t6.5 73q0 30 -16 30q-19 0 -43 -35t-33 -84l-37 14q38 78 83 123.5t104 45.5q30 0 50 -18.5t20 -57.5q0 -37 -6 -61l2 -2q94 139 184 139q114 0 114 -163q0 -73 -26.5 -136
t-69 -104t-93.5 -64.5t-102 -23.5q-43 0 -81 18q-39 -170 -41 -184q26 -18 41 -18q7 0 17 6l-12 -42q-101 8 -114 8t-122 -8zM239 282l-51 -226q28 -44 68 -44q50 0 86.5 59t53 140t16.5 167q0 25 -5 37t-23 12q-31 0 -79 -54t-66 -91z" />
    <glyph glyph-name="q" unicode="q" horiz-adv-x="574" 
d="M218 -232l8 42q8 -6 19 -6q21 0 40 19q4 22 23.5 130t32.5 163h-2q-89 -133 -183 -133q-35 0 -59 17t-34.5 44.5t-14.5 50.5t-4 48q0 42 9.5 86.5t31 89.5t53.5 80.5t81 57.5t108 22q28 0 88 -8q52 -9 81 -9q32 0 58 9q-92 -288 -147 -650q21 -17 37 -17q10 0 18 6
l-9 -42q-104 8 -118 8q-13 0 -117 -8zM354 180l50 229q-32 40 -72 40t-72 -45t-47.5 -108t-23.5 -116t-8 -85q0 -36 6 -48t22 -12q32 0 76.5 51t68.5 94z" />
    <glyph glyph-name="r" unicode="r" horiz-adv-x="481" 
d="M53 289l-34 13q24 69 79 123t113 54q36 0 51.5 -21t15.5 -50q0 -40 -7 -68h2q78 139 163 139q28 0 41.5 -17t13.5 -44q0 -32 -22.5 -67t-57.5 -35q-22 0 -35 16.5t-13 39.5q0 15 6 31q-53 -17 -119 -152q-57 -243 -60 -259q-44 8 -65 8q-22 0 -66 -8q27 90 57.5 218.5
t30.5 167.5q0 29 -16 29q-17 0 -41.5 -32t-36.5 -86z" />
    <glyph glyph-name="s" unicode="s" horiz-adv-x="481" 
d="M64 319q0 73 71.5 116.5t160.5 43.5q86 0 125 -28.5t39 -68.5q0 -29 -20.5 -51.5t-52.5 -22.5q-26 0 -46.5 16t-20.5 42q0 23 14.5 38t30.5 20q-22 25 -60 25q-39 0 -71.5 -25.5t-32.5 -69.5q0 -31 22 -51t53.5 -31t62.5 -23t53 -37t22 -64q0 -72 -66 -118.5t-166 -46.5
q-68 0 -114.5 25t-46.5 74q0 28 21 49t52 21q32 0 46.5 -16t14.5 -39q0 -19 -10.5 -32t-19.5 -17t-17 -6q19 -32 69 -32q43 0 71.5 29t28.5 68q0 35 -22 55.5t-53.5 30t-62.5 20.5t-53 37t-22 69z" />
    <glyph glyph-name="t" unicode="t" horiz-adv-x="352" 
d="M32 398l12 39h86l37 149q30 -8 64 -8q48 0 76 8l-43 -149h94l-12 -39h-94q-71 -256 -71 -326q0 -33 18 -33q23 0 52.5 42.5t36.5 78.5l36 -15q-35 -69 -85.5 -115.5t-104.5 -46.5q-44 0 -59.5 25t-15.5 68q0 87 62 322h-89z" />
    <glyph glyph-name="u" unicode="u" horiz-adv-x="630" 
d="M51 292l-36 15q11 25 26 50.5t39 55t57.5 48t70.5 18.5q69 0 69 -81q0 -50 -38 -187t-38 -151q0 -21 17 -21q54 0 156 131q17 89 70 300q37 -8 66 -8q34 0 68 8q-22 -51 -61 -203.5t-39 -201.5q0 -26 14 -26q21 0 53.5 40.5t39.5 80.5l34 -14q-33 -63 -82.5 -113
t-108.5 -50q-66 0 -66 88q0 26 4 45l-2 2q-120 -135 -217 -135q-41 0 -57.5 17t-16.5 50q0 30 36.5 168t36.5 173q0 20 -11 20q-20 0 -47 -33.5t-37 -85.5z" />
    <glyph glyph-name="v" unicode="v" horiz-adv-x="556" 
d="M60 305l-36 15q34 61 86 110t109 49q37 0 52.5 -21.5t15.5 -44.5q0 -33 -40.5 -165.5t-40.5 -173.5q0 -34 16.5 -47.5t35.5 -13.5q60 0 120 88.5t60 199.5q0 16 -6 30q-14 -9 -28 -9q-19 0 -35 15t-16 45q0 42 26 69.5t60 27.5q31 0 57 -33t26 -108q0 -50 -19 -109
t-53.5 -115t-93.5 -93.5t-130 -37.5q-65 0 -102 32t-37 90q0 49 34.5 166t34.5 130q0 14 -10 14q-20 0 -48 -36t-38 -74z" />
    <glyph glyph-name="w" unicode="w" horiz-adv-x="833" 
d="M382 168l78 302q29 -8 67 -8t67 8l-73 -244q-24 -76 -24 -132q0 -78 57 -78q56 0 108.5 90.5t52.5 178.5q0 24 -6 45q-16 -8 -29 -8q-24 0 -37 17t-13 41q0 37 22.5 68t61.5 31q37 0 61 -36t24 -96q0 -54 -18.5 -115t-53 -117.5t-93.5 -94t-130 -37.5q-43 0 -71 12
t-39.5 35.5t-14.5 40.5t-4 43h-2q-43 -62 -87 -96.5t-105 -34.5q-47 0 -69.5 28t-22.5 69q0 44 34.5 169t34.5 146q0 20 -12 20q-25 0 -53 -43.5t-33 -78.5l-36 15q87 171 192 171q76 0 76 -69q0 -38 -40.5 -166.5t-40.5 -171.5q0 -41 32 -41q33 0 71.5 43t67.5 94z" />
    <glyph glyph-name="x" unicode="x" horiz-adv-x="556" 
d="M40 274l-39 13q3 11 13 31t31 48.5t47 53t66 42t83 17.5t70.5 -20.5t35.5 -44t8 -47.5q0 -14 -1 -21h2q22 49 64 91t87 42q22 0 43 -15.5t21 -53.5t-23.5 -64.5t-52.5 -26.5q-49 0 -49 51q0 27 9 41l-2 2q-45 -22 -86 -108t-41 -169q0 -101 60 -101q29 0 68.5 34
t62.5 105l36 -16q-6 -13 -22.5 -36.5t-45.5 -57.5t-72 -57.5t-87 -23.5q-34 0 -58 12t-35.5 27.5t-17.5 39.5t-7 37t-1 32h-2q-7 -15 -18 -33.5t-32.5 -47.5t-51.5 -48t-62 -19q-27 0 -41.5 17.5t-14.5 45.5q0 32 21 62t55 30q22 0 34 -13.5t12 -35.5q0 -29 -14 -46l2 -2
q48 18 93 110.5t45 178.5q0 93 -60 93q-48 0 -86 -49.5t-47 -99.5z" />
    <glyph glyph-name="y" unicode="y" horiz-adv-x="593" 
d="M53 292l-34 14q6 21 22 48t39.5 56t58 49t70.5 20q26 0 49.5 -17t23.5 -57q0 -49 -38.5 -190.5t-38.5 -158.5q0 -19 15 -19q25 0 77 46t85 92q37 147 64 295q48 -8 56 -8q38 0 78 8q-25 -58 -75 -296l-25 -121q-62 -297 -309 -297q-56 0 -100 25t-44 74q0 35 20 54.5
t50 19.5q28 0 43 -17t15 -41t-12.5 -38t-27.5 -17q2 -14 17 -23.5t43 -9.5q44 0 77 24t54 68.5t33 87.5t23 102l10 55l-2 2q-7 -13 -35.5 -42t-81.5 -62t-99 -33q-77 0 -77 65q0 27 37 166.5t37 170.5q0 24 -17 24q-9 0 -21 -9t-29.5 -37.5t-30.5 -72.5z" />
    <glyph glyph-name="z" unicode="z" horiz-adv-x="500" 
d="M491 488l36 -26q-38 -59 -182 -211t-192 -221q84 -14 131 -14q38 0 59 23q-20 10 -20 40q0 27 21 53t56 26q22 0 36.5 -15.5t14.5 -43.5q0 -42 -42 -79t-122 -37q-38 0 -115.5 15t-107.5 15q-51 0 -51 -33l-33 20q16 33 168.5 204t195.5 229q-68 13 -106 13
q-46 0 -67 -19q20 -20 20 -43q0 -36 -26.5 -61t-54.5 -25q-25 0 -39 17.5t-14 45.5q0 46 39 82t109 36q44 0 120.5 -12.5t115.5 -12.5q50 0 50 34z" />
    <glyph glyph-name="braceleft" unicode="{" horiz-adv-x="389" 
d="M417 710l-6 -27q-41 -9 -64 -40.5t-36 -92.5l-35 -165q-13 -61 -37 -97t-74 -49v-2q59 -19 59 -83q0 -22 -9 -63l-34 -166q-9 -41 -9 -60q0 -60 55 -72l-6 -27q-79 0 -114.5 18.5t-35.5 73.5q0 30 7 65l39 184q6 29 6 53q0 57 -54 78q46 14 68.5 46t33.5 84l38 184
q20 96 66 127t142 31z" />
    <glyph glyph-name="bar" unicode="|" horiz-adv-x="222" 
d="M87 -250v1000h96v-1000h-96z" />
    <glyph glyph-name="braceright" unicode="}" horiz-adv-x="389" 
d="M-28 -234l6 27q41 9 64 40.5t36 92.5l35 165q13 61 37 97t74 49v2q-59 19 -59 83q0 22 9 63l34 166q9 41 9 60q0 60 -55 72l6 27q79 0 114.5 -18.5t35.5 -73.5q0 -30 -7 -65l-39 -184q-6 -29 -6 -53q0 -57 54 -78q-46 -14 -68.5 -46t-33.5 -84l-38 -184q-20 -96 -66 -127
t-142 -31z" />
    <glyph glyph-name="asciitilde" unicode="~" horiz-adv-x="600" 
d="M495 340l36 -84q-19 -27 -32.5 -42t-38.5 -29t-54 -14q-43 0 -102 32q-66 37 -115 37q-50 0 -84 -74l-36 84q45 86 125 86q39 0 111 -32q8 -3 27 -12t28.5 -13t23.5 -8t23 -4q19 0 36.5 12.5t26.5 24.5t25 36z" />
    <glyph glyph-name="uni00A0" unicode="&#xa0;" horiz-adv-x="296" 
 />
    <glyph glyph-name="exclamdown" unicode="&#xa1;" horiz-adv-x="370" 
d="M169 247h42q-21 -186 -21 -373q0 -81 2 -113q-66 8 -100 8q-32 0 -96 -8q117 265 173 486zM297 414q0 -38 -22.5 -67.5t-58.5 -29.5q-35 0 -53 20t-18 50q0 40 25 69.5t65 29.5q27 0 44.5 -17.5t17.5 -54.5z" />
    <glyph glyph-name="cent" unicode="&#xa2;" 
d="M256 45l81 395q-58 -22 -92 -115t-34 -170q0 -79 45 -110zM370 446l-86 -412q9 -3 20 -3q53 0 101.5 42t65.5 97l35 -18q-6 -14 -22.5 -35.5t-45 -51t-72.5 -52t-92 -28.5q-17 -83 -18 -107l-35 7q11 28 23 98q-91 1 -132 53t-41 128t32.5 144.5t96 116t145.5 53.5
q12 75 15 106l42 -8q-16 -50 -25 -97q64 -2 100 -29.5t36 -71.5t-25.5 -73t-56.5 -29q-27 0 -42.5 18t-15.5 45q0 25 12.5 47.5t36.5 32.5q-12 25 -52 27z" />
    <glyph glyph-name="sterling" unicode="&#xa3;" 
d="M27 303l8 52q30 -7 52 -7h22q7 93 36 165.5t71.5 115.5t91 64.5t99.5 21.5q76 0 120 -39.5t44 -97.5q0 -61 -36 -102t-81 -41q-34 0 -49 21t-15 44q0 30 20 55t48 25q12 0 20 -5q13 13 13 35q0 26 -20 49t-55 23q-24 0 -44 -9.5t-34 -29.5t-23.5 -37.5t-16.5 -46.5
t-10 -42.5t-7 -38.5q-1 -3 -5 -28t-9.5 -53t-9.5 -49h104q79 0 141 7l-8 -52q-54 6 -132 6h-117q-18 -50 -29 -76.5t-42 -74.5t-71 -83l2 -2q69 47 183 47q83 0 163 -22q3 16 3 30q0 48 -27 90l46 15q15 -45 15 -105t-19 -130q-24 3 -82.5 13.5t-103 15.5t-92.5 5
q-61 0 -97.5 -9.5t-52.5 -39.5l-34 37q83 29 98 289h-31q-15 0 -47 -6z" />
    <glyph glyph-name="currency" unicode="&#xa4;" 
d="M60 549l54 55l56 -57q64 48 146 48q81 0 145 -48l57 57l54 -55l-56 -56q48 -64 48 -146q0 -80 -48 -146l56 -56l-54 -55l-57 57q-63 -48 -145 -48q-81 0 -145 48l-57 -57l-54 55l56 56q-48 65 -48 146q0 80 48 146zM164 347q0 -67 44.5 -112.5t107.5 -45.5t107.5 45.5
t44.5 112.5t-44.5 112.5t-107.5 45.5t-107.5 -45.5t-44.5 -112.5z" />
    <glyph glyph-name="yen" unicode="&#xa5;" 
d="M123 -8l12 45q7 -3 19 -3q24 0 50 23q23 107 24 110q-40 0 -96 -2t-61 -2l12 56q5 0 60.5 -2t95.5 -2q13 62 14 68q-41 0 -97.5 -2t-60.5 -2l12 56q5 0 53 -2t82 -2l-71 226q-24 76 -30 84q-20 22 -39 22q-7 0 -16 -6l11 45q52 -8 138 -8q87 0 151 8l-11 -45q-11 6 -20 6
q-24 0 -63 -29q18 -141 75 -303h1q102 146 164 307q-31 25 -59 25q-11 0 -24 -6l11 45q56 -8 110 -8q65 0 119 8l-11 -45q-6 6 -13 6q-10 0 -22.5 -9t-26 -25.5t-23.5 -30t-22 -32.5t-16 -24l-150 -211q35 -1 86 1.5t53 2.5l-12 -56q-46 2 -72 2q-50 2 -87 2q-5 -28 -12 -68
q40 0 96.5 2t62.5 2l-12 -56q-5 0 -61 2t-95 2q-9 -58 -15 -112q18 -21 42 -21q9 0 20 3l-12 -45q-54 8 -127 8q-71 0 -137 -8z" />
    <glyph glyph-name="brokenbar" unicode="&#xa6;" horiz-adv-x="222" 
d="M87 -175v350h96v-350h-96zM87 325v350h96v-350h-96z" />
    <glyph glyph-name="section" unicode="&#xa7;" horiz-adv-x="593" 
d="M224 57l-78 44q-17 10 -27.5 17.5t-29 25t-28 42.5t-9.5 55q0 36 18 66t46.5 47.5t52.5 27t46 14.5q-48 36 -67 63.5t-19 73.5q0 78 68.5 130t175.5 52q59 0 102.5 -15.5t64.5 -40.5t30.5 -48t9.5 -45q0 -39 -27 -73t-70 -34q-28 0 -43.5 17.5t-15.5 43.5q0 27 11.5 46
t22 24.5t25.5 10.5q-11 43 -44 60.5t-67 17.5q-44 0 -76.5 -27t-32.5 -77q0 -46 28.5 -77.5t107.5 -79.5q44 -27 68.5 -45t47 -49t22.5 -65q0 -71 -52.5 -113t-113.5 -51v-2q27 -19 42 -32t30 -40.5t15 -61.5q0 -87 -76 -135t-168 -48q-89 0 -145 41.5t-56 103.5q0 49 28 78
t62 29q22 0 42 -15t20 -45q0 -32 -18 -50.5t-39 -21.5q-3 -3 -3 -12q0 -7 5 -17.5t15.5 -24.5t33 -23.5t52.5 -9.5q58 0 87 34.5t29 74.5q0 80 -103 139zM321 122l26 -15q30 18 44.5 39t14.5 58q0 48 -36.5 86.5t-111.5 79.5l-21 12q-54 -28 -54 -96q0 -30 9.5 -54t34 -45
t40.5 -32t54 -33z" />
    <glyph glyph-name="dieresis" unicode="&#xa8;" horiz-adv-x="278" 
d="M55 615q0 35 22.5 57t50.5 22q22 0 35.5 -15.5t13.5 -41.5q0 -35 -20.5 -57.5t-47.5 -22.5q-20 0 -37 14t-17 44zM241 615q0 35 22.5 57t50.5 22q22 0 35.5 -15.5t13.5 -41.5q0 -35 -20.5 -57.5t-47.5 -22.5q-20 0 -37 14t-17 44z" />
    <glyph glyph-name="copyright" unicode="&#xa9;" horiz-adv-x="800" 
d="M598 267l-16 -83q-2 -14 -29 -22q-68 -19 -121 -19q-103 0 -160 57.5t-57 150.5q0 35 12.5 68.5t38 64.5t72.5 50t109 19q59 0 108 -18q26 -9 26 -23v-81h-30q-23 92 -107 92q-55 0 -85.5 -46.5t-30.5 -120.5q0 -82 29.5 -132.5t92.5 -50.5q42 0 72 26t46 68h30zM53 347
q0 152 108 260t260 108t260 -108t108 -260t-108 -260t-260 -108t-260 108t-108 260zM137 347q0 -120 85.5 -208t198.5 -88t198.5 88t85.5 208t-85.5 208t-198.5 88t-198.5 -88t-85.5 -208z" />
    <glyph glyph-name="ordfeminine" unicode="&#xaa;" horiz-adv-x="397" 
d="M428 521l24 -9q-16 -33 -50 -65.5t-77 -32.5q-24 0 -36.5 15.5t-12.5 34.5q0 5 5 30l-2 2q-15 -19 -22 -27t-24 -24t-35.5 -23.5t-39.5 -7.5q-40 0 -58.5 29t-18.5 70q0 17 5 39.5t19 51t34.5 51.5t56.5 39t80 16q19 0 55 -6t48 -6q11 0 43 6q-14 -41 -38 -129t-24 -110
q0 -15 10 -15q16 0 34.5 24.5t23.5 46.5zM173 481q0 -31 19 -31q30 0 92 83q17 80 32 129q-6 8 -20 16t-28 8q-45 0 -70 -67.5t-25 -137.5z" />
    <glyph glyph-name="guillemotleft" unicode="&#xab;" horiz-adv-x="537" 
d="M449 483l42 -8q-47 -156 -95 -206q19 -41 19 -112q0 -22 -8 -102l-39 5q11 26 11 54q0 103 -129 141l4 30q28 8 55 20.5t60 35t55 59.5t25 83zM245 483l42 -8q-47 -156 -95 -206q19 -41 19 -112q0 -22 -8 -102l-39 5q11 26 11 54q0 103 -129 141l4 30q28 8 55 20.5t60 35
t55 59.5t25 83z" />
    <glyph glyph-name="logicalnot" unicode="&#xac;" horiz-adv-x="600" 
d="M457 103v204h-410v96h506v-300h-96z" />
    <glyph glyph-name="uni00AD" unicode="&#xad;" horiz-adv-x="296" 
d="M20 204q20 37 20 88q64 -6 113 -6q67 0 137 6q-16 -28 -16 -88q-66 4 -125 4q-49 0 -129 -4z" />
    <glyph glyph-name="registered" unicode="&#xae;" horiz-adv-x="800" 
d="M290 230v236q0 29 -7.5 36t-39.5 9v30h197q67 0 99 -27t32 -70q0 -37 -22 -66.5t-56 -41.5l71 -117q21 -35 55 -35v-30h-96q-29 0 -58 57l-60 114h-25v-95q0 -29 7.5 -36.5t39.5 -9.5v-30h-184v30q32 2 39.5 9.5t7.5 36.5zM380 511v-156h31q33 0 48.5 24.5t15.5 58.5
q0 73 -63 73h-32zM53 347q0 152 108 260t260 108t260 -108t108 -260t-108 -260t-260 -108t-260 108t-108 260zM137 347q0 -120 85.5 -208t198.5 -88t198.5 88t85.5 208t-85.5 208t-198.5 88t-198.5 -88t-85.5 -208z" />
    <glyph glyph-name="macron" unicode="&#xaf;" horiz-adv-x="278" 
d="M43 585q14 51 14 72q55 -6 172 -6q109 0 147 6q-12 -35 -14 -72q-60 5 -158 5q-91 0 -161 -5z" />
    <glyph glyph-name="degree" unicode="&#xb0;" horiz-adv-x="400" 
d="M102 572q0 59 42 101t101 42t101 -42t42 -101t-42 -101t-101 -42t-101 42t-42 101zM174 572q0 -29 21 -50t50 -21t50 21t21 50t-21 50t-50 21t-50 -21t-21 -50z" />
    <glyph glyph-name="plusminus" unicode="&#xb1;" horiz-adv-x="600" 
d="M47 267v96h205v143h96v-143h205v-96h-205v-143h-96v143h-205zM47 0v96h506v-96h-506z" />
    <glyph glyph-name="twosuperior" unicode="&#xb2;" horiz-adv-x="385" 
d="M331 411l33 10q11 -38 11 -70q0 -23 -13 -72q-53 8 -102 12q-51 6 -109 6q-95 0 -95 -20v-3l-31 8q12 30 41.5 65t55 57.5t73.5 63.5q118 96 118 155q0 26 -16 43t-48 17q-25 0 -48 -15t-27 -47q38 -4 38 -35q0 -24 -19 -42t-44 -18q-23 0 -38 15t-15 38q0 44 47 87.5
t117 43.5q23 0 46.5 -4t50.5 -13.5t43.5 -31.5t16.5 -53q0 -43 -33.5 -77t-89.5 -67q-10 -6 -50.5 -27t-74.5 -42.5t-58 -43.5l2 -2q45 12 103 12q42 0 132 -12q0 41 -17 62z" />
    <glyph glyph-name="threesuperior" unicode="&#xb3;" horiz-adv-x="385" 
d="M162 460l-9 30l11 4q144 50 144 126q0 28 -16.5 45.5t-46.5 17.5q-26 0 -42.5 -11.5t-21.5 -27.5q22 -10 25 -25q1 -5 1 -10q0 -19 -17 -36t-41 -17q-17 0 -31.5 13.5t-14.5 33.5q0 50 51 78.5t109 28.5q61 0 105 -25.5t44 -62.5q0 -25 -14 -46t-40 -36t-46 -23.5
t-49 -18.5v-2q59 -4 88 -28.5t29 -59.5q0 -53 -55 -93.5t-138 -40.5q-67 0 -99.5 29t-32.5 61q0 31 20 49t41 18q18 0 30.5 -11.5t12.5 -29.5t-11.5 -31.5t-28.5 -15.5q5 -45 60 -45q39 0 68 32t29 78q0 39 -20.5 54t-42.5 15q-29 0 -51 -17z" />
    <glyph glyph-name="acute" unicode="&#xb4;" horiz-adv-x="278" 
d="M171 527l-26 27q24 19 78 88.5t65 94.5q23 -22 102 -57q-172 -66 -219 -153z" />
    <glyph glyph-name="mu" unicode="&#xb5;" horiz-adv-x="630" 
d="M51 292l-36 15q11 25 26 50.5t39 55t57.5 48t70.5 18.5q69 0 69 -81q0 -50 -38 -187t-38 -151q0 -21 17 -21q54 0 156 131q17 89 70 300q37 -8 66 -8q34 0 68 8q-22 -51 -61 -203.5t-39 -201.5q0 -26 14 -26q21 0 53.5 40.5t39.5 80.5l34 -14q-33 -63 -82.5 -113
t-108.5 -50q-66 0 -66 88q0 26 4 45l-2 2q-47 -54 -102.5 -94.5t-104.5 -40.5q-31 0 -36 24l-2 1q-5 -30 -3 -80q4 -62 4 -103q0 -29 -19 -49t-47 -20q-59 0 -59 57q0 20 13 62.5t36.5 113.5t38.5 125q63 228 63 277q0 20 -11 20q-20 0 -47 -33.5t-37 -85.5z" />
    <glyph glyph-name="paragraph" unicode="&#xb6;" horiz-adv-x="600" 
d="M54 -203l8 36h14q63 0 77 64l77 370q-77 0 -113.5 36t-36.5 110q0 121 65 201t182 80h321l-8 -36h-14q-63 0 -77 -64l-140 -673q-7 -33 -7 -52q0 -36 53 -36h14l-8 -36h-168l174 837h-71l-174 -837h-168zM242 327l64 307q-46 -3 -77 -42.5t-42 -85.5t-11 -93
q0 -77 66 -86z" />
    <glyph glyph-name="periodcentered" unicode="&#xb7;" horiz-adv-x="296" 
d="M70 277q0 32 23 55t55 23t55 -23t23 -55t-23 -55t-55 -23t-55 23t-23 55z" />
    <glyph glyph-name="cedilla" unicode="&#xb8;" horiz-adv-x="278" 
d="M24 -224l12 36q15 -3 29 -3q36 0 59.5 16t23.5 31q0 18 -28 28.5t-56 12.5l73 109h31l-37 -64q85 -17 85 -65q0 -37 -49.5 -66t-142.5 -35z" />
    <glyph glyph-name="onesuperior" unicode="&#xb9;" horiz-adv-x="385" 
d="M104 279l8 33q6 -3 17 -3q22 0 53 21q53 196 64 306q-67 -18 -118 -26l-8 36h14q39 0 101.5 18.5t112.5 50.5l27 -15q-5 -5 -29 -87q-20 -65 -38 -151t-22 -134q24 -19 44 -19q10 0 20 3l-8 -33q-27 5 -108 5q-58 0 -130 -5z" />
    <glyph glyph-name="ordmasculine" unicode="&#xba;" horiz-adv-x="385" 
d="M95 541q0 75 51.5 122t132.5 47q59 0 99.5 -30t40.5 -87q0 -69 -51.5 -124t-138.5 -55q-71 0 -102.5 39.5t-31.5 87.5zM191 506q0 -71 38 -71q37 0 65.5 60t28.5 128q0 33 -9 48t-31 15q-31 0 -53.5 -35.5t-30.5 -74.5t-8 -70z" />
    <glyph glyph-name="guillemotright" unicode="&#xbb;" horiz-adv-x="537" 
d="M97 55l-42 8q47 156 95 206q-19 41 -19 112q0 22 8 102l39 -5q-11 -26 -11 -54q0 -103 129 -141l-4 -30q-28 -8 -55 -20.5t-60 -35t-55 -59.5t-25 -83zM301 55l-42 8q47 156 95 206q-19 41 -19 112q0 22 8 102l39 -5q-11 -26 -11 -54q0 -103 129 -141l-4 -30
q-28 -8 -55 -20.5t-60 -35t-55 -59.5t-25 -83z" />
    <glyph glyph-name="onequarter" unicode="&#xbc;" horiz-adv-x="889" 
d="M552 -5l3 33q6 -3 14 -3q15 0 34 15q9 25 21 80q-32 2 -49 2q-42 0 -97 -13q-6 -1 -10.5 -6t-4.5 -8q0 -4 1 -6l-30 10q48 104 241 327q13 -13 44 -13q11 0 32.5 1.5t29.5 1.5q-18 -61 -59 -244q16 -1 75 -8q1 4 1 13q0 26 -10 46l26 8q8 -29 8 -52q0 -31 -11 -75
q-55 11 -100 12q-8 -32 -13 -79q14 -12 28 -12q7 0 13 3l-7 -33q-43 5 -84 5q-56 0 -96 -5zM611 178h25q15 62 38 203h-1l-1 2q-138 -161 -168 -220q45 15 107 15zM669 715l45 -29q-21 -26 -52 -74l-368 -572q-20 -31 -34 -61l-45 29q28 38 41 59l371 575q8 12 42 73z
M104 279l8 33q6 -3 17 -3q22 0 53 21q53 196 64 306q-67 -18 -118 -26l-8 36h14q39 0 101.5 18.5t112.5 50.5l27 -15q-5 -5 -29 -87q-20 -65 -38 -151t-22 -134q24 -19 44 -19q10 0 20 3l-8 -33q-27 5 -108 5q-58 0 -130 -5z" />
    <glyph glyph-name="onehalf" unicode="&#xbd;" horiz-adv-x="889" 
d="M652 715l45 -29q-21 -26 -52 -74l-368 -572q-20 -31 -34 -61l-45 29q28 38 41 59l371 575q8 12 42 73zM104 279l8 33q6 -3 17 -3q22 0 53 21q53 196 64 306q-67 -18 -118 -26l-8 36h14q39 0 101.5 18.5t112.5 50.5l27 -15q-5 -5 -29 -87q-20 -65 -38 -151t-22 -134
q24 -19 44 -19q10 0 20 3l-8 -33q-27 5 -108 5q-58 0 -130 -5zM736 120l33 10q11 -38 11 -70q0 -23 -13 -72q-53 8 -102 12q-51 6 -109 6q-95 0 -95 -20v-3l-31 8q12 30 41.5 65t55 57.5t73.5 63.5q118 96 118 155q0 26 -16 43t-48 17q-25 0 -48 -15t-27 -47q38 -4 38 -35
q0 -24 -19 -42t-44 -18q-23 0 -38 15t-15 38q0 44 47 87.5t117 43.5q23 0 46.5 -4t50.5 -13.5t43.5 -31.5t16.5 -53q0 -43 -33.5 -77t-89.5 -67q-10 -6 -50.5 -27t-74.5 -42.5t-58 -43.5l2 -2q45 12 103 12q42 0 132 -12q0 41 -17 62z" />
    <glyph glyph-name="threequarters" unicode="&#xbe;" horiz-adv-x="889" 
d="M552 -5l3 33q6 -3 14 -3q15 0 34 15q9 25 21 80q-32 2 -49 2q-42 0 -97 -13q-6 -1 -10.5 -6t-4.5 -8q0 -4 1 -6l-30 10q48 104 241 327q13 -13 44 -13q11 0 32.5 1.5t29.5 1.5q-18 -61 -59 -244q16 -1 75 -8q1 4 1 13q0 26 -10 46l26 8q8 -29 8 -52q0 -31 -11 -75
q-55 11 -100 12q-8 -32 -13 -79q14 -12 28 -12q7 0 13 3l-7 -33q-43 5 -84 5q-56 0 -96 -5zM611 178h25q15 62 38 203h-1l-1 2q-138 -161 -168 -220q45 15 107 15zM669 715l45 -29q-21 -26 -52 -74l-368 -572q-20 -31 -34 -61l-45 29q28 38 41 59l371 575q8 12 42 73z
M162 460l-9 30l11 4q144 50 144 126q0 28 -16.5 45.5t-46.5 17.5q-26 0 -42.5 -11.5t-21.5 -27.5q22 -10 25 -25q1 -5 1 -10q0 -19 -17 -36t-41 -17q-17 0 -31.5 13.5t-14.5 33.5q0 50 51 78.5t109 28.5q61 0 105 -25.5t44 -62.5q0 -25 -14 -46t-40 -36t-46 -23.5t-49 -18.5
v-2q59 -4 88 -28.5t29 -59.5q0 -53 -55 -93.5t-138 -40.5q-67 0 -99.5 29t-32.5 61q0 31 20 49t41 18q18 0 30.5 -11.5t12.5 -29.5t-11.5 -31.5t-28.5 -15.5q5 -45 60 -45q39 0 68 32t29 78q0 39 -20.5 54t-42.5 15q-29 0 -51 -17z" />
    <glyph glyph-name="questiondown" unicode="&#xbf;" horiz-adv-x="556" 
d="M163 217l-11 39q3 0 21 1.5t27 1.5q38 0 81.5 -8t82.5 -31t39 -57q0 -7 -2 -14.5t-6.5 -14.5t-8.5 -12.5t-12 -13t-13 -11.5t-15.5 -11.5t-15 -10.5t-16.5 -10.5t-15 -9.5l-57 -36q-121 -76 -121 -145q0 -31 25 -56.5t76 -25.5q26 0 45 7.5t29 21.5t14 22.5t7 20.5
q-26 6 -36 22.5t-10 31.5q0 33 23.5 53.5t59.5 20.5q32 0 54.5 -21t22.5 -61q0 -17 -10.5 -40t-34 -50t-72 -45.5t-113.5 -18.5q-117 0 -170.5 42t-53.5 95q0 104 176 188q131 62 131 108q0 17 -18.5 27t-48.5 10q-29 0 -54 -9zM250 387q0 40 25 69.5t63 29.5q28 0 46 -18
t18 -54q0 -39 -23 -68t-60 -29q-35 0 -52 20t-17 50z" />
    <glyph glyph-name="Agrave" unicode="&#xc0;" horiz-adv-x="722" 
d="M-12 -8l12 45q9 -3 17 -3q19 0 37 21t44 67q44 78 137.5 252t145.5 264q-35 25 -70 25q-2 0 -32 -6l12 45q92 -8 140 -8q52 0 138 8q-6 -22 -6 -47q0 -71 21 -238l45 -358q19 -25 37 -25q14 0 23 3l-12 -45q-90 8 -136 8q-56 0 -164 -8l12 45q9 -3 23 -3q29 0 67 22
q0 101 -11 208h-234q-64 -146 -74 -205q32 -25 69 -25q15 0 26 3l-12 -45q-84 8 -127 8q-44 0 -128 -8zM251 300h212q-12 115 -52 316h-2q-89 -168 -158 -316zM511 767l-27 -27q-21 38 -73.5 71t-142.5 73q38 17 55.5 28.5t46.5 37.5q43 -70 67.5 -102.5t73.5 -80.5z" />
    <glyph glyph-name="Aacute" unicode="&#xc1;" horiz-adv-x="722" 
d="M-12 -8l12 45q9 -3 17 -3q19 0 37 21t44 67q44 78 137.5 252t145.5 264q-35 25 -70 25q-2 0 -32 -6l12 45q92 -8 140 -8q52 0 138 8q-6 -22 -6 -47q0 -71 21 -238l45 -358q19 -25 37 -25q14 0 23 3l-12 -45q-90 8 -136 8q-56 0 -164 -8l12 45q9 -3 23 -3q29 0 67 22
q0 101 -11 208h-234q-64 -146 -74 -205q32 -25 69 -25q15 0 26 3l-12 -45q-84 8 -127 8q-44 0 -128 -8zM251 300h212q-12 115 -52 316h-2q-89 -168 -158 -316zM408 750l-26 27q24 19 78 88.5t65 94.5q23 -22 102 -57q-172 -66 -219 -153z" />
    <glyph glyph-name="Acircumflex" unicode="&#xc2;" horiz-adv-x="722" 
d="M-12 -8l12 45q9 -3 17 -3q19 0 37 21t44 67q44 78 137.5 252t145.5 264q-35 25 -70 25q-2 0 -32 -6l12 45q92 -8 140 -8q52 0 138 8q-6 -22 -6 -47q0 -71 21 -238l45 -358q19 -25 37 -25q14 0 23 3l-12 -45q-90 8 -136 8q-56 0 -164 -8l12 45q9 -3 23 -3q29 0 67 22
q0 101 -11 208h-234q-64 -146 -74 -205q32 -25 69 -25q15 0 26 3l-12 -45q-84 8 -127 8q-44 0 -128 -8zM251 300h212q-12 115 -52 316h-2q-89 -168 -158 -316zM315 740l-25 29q43 18 91 72t83 109h30q24 -119 97 -181l-30 -29l-104 105z" />
    <glyph glyph-name="Atilde" unicode="&#xc3;" horiz-adv-x="722" 
d="M-12 -8l12 45q9 -3 17 -3q19 0 37 21t44 67q44 78 137.5 252t145.5 264q-35 25 -70 25q-2 0 -32 -6l12 45q92 -8 140 -8q52 0 138 8q-6 -22 -6 -47q0 -71 21 -238l45 -358q19 -25 37 -25q14 0 23 3l-12 -45q-90 8 -136 8q-56 0 -164 -8l12 45q9 -3 23 -3q29 0 67 22
q0 101 -11 208h-234q-64 -146 -74 -205q32 -25 69 -25q15 0 26 3l-12 -45q-84 8 -127 8q-44 0 -128 -8zM251 300h212q-12 115 -52 316h-2q-89 -168 -158 -316zM621 888l32 -25q-61 -86 -132 -86q-32 0 -86 28q-58 30 -85 30q-44 0 -66 -58l-30 23q65 95 142 95q22 0 41.5 -7
t61.5 -31q47 -26 61 -26q21 0 41 18.5t20 38.5z" />
    <glyph glyph-name="Adieresis" unicode="&#xc4;" horiz-adv-x="722" 
d="M-12 -8l12 45q9 -3 17 -3q19 0 37 21t44 67q44 78 137.5 252t145.5 264q-35 25 -70 25q-2 0 -32 -6l12 45q92 -8 140 -8q52 0 138 8q-6 -22 -6 -47q0 -71 21 -238l45 -358q19 -25 37 -25q14 0 23 3l-12 -45q-90 8 -136 8q-56 0 -164 -8l12 45q9 -3 23 -3q29 0 67 22
q0 101 -11 208h-234q-64 -146 -74 -205q32 -25 69 -25q15 0 26 3l-12 -45q-84 8 -127 8q-44 0 -128 -8zM251 300h212q-12 115 -52 316h-2q-89 -168 -158 -316zM292 828q0 35 22.5 57t50.5 22q22 0 35.5 -15.5t13.5 -41.5q0 -35 -20.5 -57.5t-47.5 -22.5q-20 0 -37 14t-17 44
zM478 828q0 35 22.5 57t50.5 22q22 0 35.5 -15.5t13.5 -41.5q0 -35 -20.5 -57.5t-47.5 -22.5q-20 0 -37 14t-17 44z" />
    <glyph glyph-name="Aring" unicode="&#xc5;" horiz-adv-x="722" 
d="M-12 -8l12 45q9 -3 17 -3q19 0 37 21t44 67q44 78 137.5 252t145.5 264q-35 25 -70 25q-2 0 -32 -6l12 45q92 -8 140 -8q52 0 138 8q-6 -22 -6 -47q0 -71 21 -238l45 -358q19 -25 37 -25q14 0 23 3l-12 -45q-90 8 -136 8q-56 0 -164 -8l12 45q9 -3 23 -3q29 0 67 22
q0 101 -11 208h-234q-64 -146 -74 -205q32 -25 69 -25q15 0 26 3l-12 -45q-84 8 -127 8q-44 0 -128 -8zM406 805q0 -23 12 -39.5t34 -16.5q36 0 54 36.5t18 63.5q0 56 -45 56q-32 0 -52.5 -31t-20.5 -69zM251 300h212q-12 115 -52 316h-2q-89 -168 -158 -316zM361 816
q0 19 9 43.5t39 48.5t76 24q45 0 64.5 -27t19.5 -57q0 -46 -33.5 -86t-89.5 -40q-31 0 -58 21.5t-27 72.5z" />
    <glyph glyph-name="AE" unicode="&#xc6;" horiz-adv-x="926" 
d="M-42 -8l12 45q8 -3 16 -3q15 0 33.5 17t54.5 60q6 8 62 85t130 178t121 160l81 104q-42 25 -74 25q-16 0 -28 -6l12 45q152 -8 228 -8q105 0 313 8q-28 -140 -33 -230h-48q12 58 12 72q0 42 -24 88q-58 28 -98 28q-28 0 -72 -22q-38 -201 -47 -264q53 0 92 10
q45 45 45 85q0 5 -2 21h45q-16 -52 -26.5 -133.5t-10.5 -150.5h-45q9 27 9 50q0 38 -22 71q-24 14 -91 14q-28 -184 -29 -283q43 -24 94 -24q39 0 110 23q62 71 62 147q0 6 -2 20h48q-28 -139 -32 -232q-164 8 -245 8q-94 0 -284 -8l12 45q9 -3 24 -3q35 0 65 26
q10 48 35 207h-212q-55 -76 -117 -210q30 -23 60 -23q8 0 29 3l-12 -45q-52 8 -119 8q-44 0 -132 -8zM270 300h195q30 219 30 312l-2 2q-106 -141 -223 -314z" />
    <glyph glyph-name="Ccedilla" unicode="&#xc7;" horiz-adv-x="685" 
d="M633 169l37 -37q-53 -70 -125 -108t-139 -45l-22 -37q85 -17 85 -65q0 -37 -49.5 -66t-142.5 -35l12 36q15 -3 29 -3q36 0 59.5 16t23.5 31q0 18 -28 28.5t-56 12.5l55 82q-154 5 -227 95t-73 234q0 58 15 114.5t47.5 110t80 93.5t117 64.5t153.5 24.5q31 0 93 -4t93 -4
q18 0 58 8q-46 -163 -55 -268h-52q19 23 19 86q0 73 -21 108q-48 38 -125 38q-64 0 -116 -37t-83 -96.5t-47.5 -129t-16.5 -140.5q0 -52 9.5 -95.5t29.5 -79.5t57.5 -56.5t88.5 -20.5q33 0 69 10.5t79.5 45.5t67.5 89z" />
    <glyph glyph-name="Egrave" unicode="&#xc8;" horiz-adv-x="630" 
d="M3 -8l12 45q16 -4 23 -3q27 0 53 23q35 128 70.5 302.5t41.5 274.5q-35 29 -55 29q-9 0 -18 -6l12 45q72 -8 200 -8q110 0 328 8q-45 -145 -47 -227h-52q22 46 22 85q0 40 -22 75q-63 25 -119 25q-43 0 -83 -20q-17 -55 -39.5 -150t-28.5 -116q89 6 115 16
q28 17 41.5 42.5t13.5 42.5q0 10 -2 16h48q-16 -31 -36 -128.5t-22 -159.5h-45q12 16 12 47q0 37 -19 75q-25 13 -114 16q-39 -168 -48 -284q43 -23 102 -23q67 0 123 18q39 37 58.5 80.5t19.5 72.5q0 11 -3 17h48q-39 -138 -47 -230q-132 8 -304 8q-115 0 -239 -8zM485 767
l-27 -27q-21 38 -73.5 71t-142.5 73q38 17 55.5 28.5t46.5 37.5q43 -70 67.5 -102.5t73.5 -80.5z" />
    <glyph glyph-name="Eacute" unicode="&#xc9;" horiz-adv-x="630" 
d="M3 -8l12 45q16 -4 23 -3q27 0 53 23q35 128 70.5 302.5t41.5 274.5q-35 29 -55 29q-9 0 -18 -6l12 45q72 -8 200 -8q110 0 328 8q-45 -145 -47 -227h-52q22 46 22 85q0 40 -22 75q-63 25 -119 25q-43 0 -83 -20q-17 -55 -39.5 -150t-28.5 -116q89 6 115 16
q28 17 41.5 42.5t13.5 42.5q0 10 -2 16h48q-16 -31 -36 -128.5t-22 -159.5h-45q12 16 12 47q0 37 -19 75q-25 13 -114 16q-39 -168 -48 -284q43 -23 102 -23q67 0 123 18q39 37 58.5 80.5t19.5 72.5q0 11 -3 17h48q-39 -138 -47 -230q-132 8 -304 8q-115 0 -239 -8zM377 740
l-26 27q24 19 78 88.5t65 94.5q23 -22 102 -57q-172 -66 -219 -153z" />
    <glyph glyph-name="Ecircumflex" unicode="&#xca;" horiz-adv-x="630" 
d="M3 -8l12 45q16 -4 23 -3q27 0 53 23q35 128 70.5 302.5t41.5 274.5q-35 29 -55 29q-9 0 -18 -6l12 45q72 -8 200 -8q110 0 328 8q-45 -145 -47 -227h-52q22 46 22 85q0 40 -22 75q-63 25 -119 25q-43 0 -83 -20q-17 -55 -39.5 -150t-28.5 -116q89 6 115 16
q28 17 41.5 42.5t13.5 42.5q0 10 -2 16h48q-16 -31 -36 -128.5t-22 -159.5h-45q12 16 12 47q0 37 -19 75q-25 13 -114 16q-39 -168 -48 -284q43 -23 102 -23q67 0 123 18q39 37 58.5 80.5t19.5 72.5q0 11 -3 17h48q-39 -138 -47 -230q-132 8 -304 8q-115 0 -239 -8zM289 740
l-25 29q43 18 91 72t83 109h30q24 -119 97 -181l-30 -29l-104 105z" />
    <glyph glyph-name="Edieresis" unicode="&#xcb;" horiz-adv-x="630" 
d="M3 -8l12 45q16 -4 23 -3q27 0 53 23q35 128 70.5 302.5t41.5 274.5q-35 29 -55 29q-9 0 -18 -6l12 45q72 -8 200 -8q110 0 328 8q-45 -145 -47 -227h-52q22 46 22 85q0 40 -22 75q-63 25 -119 25q-43 0 -83 -20q-17 -55 -39.5 -150t-28.5 -116q89 6 115 16
q28 17 41.5 42.5t13.5 42.5q0 10 -2 16h48q-16 -31 -36 -128.5t-22 -159.5h-45q12 16 12 47q0 37 -19 75q-25 13 -114 16q-39 -168 -48 -284q43 -23 102 -23q67 0 123 18q39 37 58.5 80.5t19.5 72.5q0 11 -3 17h48q-39 -138 -47 -230q-132 8 -304 8q-115 0 -239 -8zM271 828
q0 35 22.5 57t50.5 22q22 0 35.5 -15.5t13.5 -41.5q0 -35 -20.5 -57.5t-47.5 -22.5q-20 0 -37 14t-17 44zM457 828q0 35 22.5 57t50.5 22q22 0 35.5 -15.5t13.5 -41.5q0 -35 -20.5 -57.5t-47.5 -22.5q-20 0 -37 14t-17 44z" />
    <glyph glyph-name="Igrave" unicode="&#xcc;" horiz-adv-x="407" 
d="M3 -8l12 45q16 -4 29 -3q21 0 47 23q35 128 70.5 302.5t41.5 274.5q-35 29 -55 29q-9 0 -18 -6l12 45q76 -8 153 -8q76 0 168 8l-12 -45q-9 6 -19 6q-27 0 -64 -29q-32 -103 -72.5 -289.5t-48.5 -290.5q18 -20 49 -20q11 0 20 3l-12 -45q-62 8 -142 8q-93 0 -159 -8z
M379 767l-27 -27q-21 38 -73.5 71t-142.5 73q38 17 55.5 28.5t46.5 37.5q43 -70 67.5 -102.5t73.5 -80.5z" />
    <glyph glyph-name="Iacute" unicode="&#xcd;" horiz-adv-x="407" 
d="M3 -8l12 45q16 -4 29 -3q21 0 47 23q35 128 70.5 302.5t41.5 274.5q-35 29 -55 29q-9 0 -18 -6l12 45q76 -8 153 -8q76 0 168 8l-12 -45q-9 6 -19 6q-27 0 -64 -29q-32 -103 -72.5 -289.5t-48.5 -290.5q18 -20 49 -20q11 0 20 3l-12 -45q-62 8 -142 8q-93 0 -159 -8z
M276 740l-26 27q24 19 78 88.5t65 94.5q23 -22 102 -57q-172 -66 -219 -153z" />
    <glyph glyph-name="Icircumflex" unicode="&#xce;" horiz-adv-x="407" 
d="M3 -8l12 45q16 -4 29 -3q21 0 47 23q35 128 70.5 302.5t41.5 274.5q-35 29 -55 29q-9 0 -18 -6l12 45q76 -8 153 -8q76 0 168 8l-12 -45q-9 6 -19 6q-27 0 -64 -29q-32 -103 -72.5 -289.5t-48.5 -290.5q18 -20 49 -20q11 0 20 3l-12 -45q-62 8 -142 8q-93 0 -159 -8z
M183 740l-25 29q43 18 91 72t83 109h30q24 -119 97 -181l-30 -29l-104 105z" />
    <glyph glyph-name="Idieresis" unicode="&#xcf;" horiz-adv-x="407" 
d="M3 -8l12 45q16 -4 29 -3q21 0 47 23q35 128 70.5 302.5t41.5 274.5q-35 29 -55 29q-9 0 -18 -6l12 45q76 -8 153 -8q76 0 168 8l-12 -45q-9 6 -19 6q-27 0 -64 -29q-32 -103 -72.5 -289.5t-48.5 -290.5q18 -20 49 -20q11 0 20 3l-12 -45q-62 8 -142 8q-93 0 -159 -8z
M160 828q0 35 22.5 57t50.5 22q22 0 35.5 -15.5t13.5 -41.5q0 -35 -20.5 -57.5t-47.5 -22.5q-20 0 -37 14t-17 44zM346 828q0 35 22.5 57t50.5 22q22 0 35.5 -15.5t13.5 -41.5q0 -35 -20.5 -57.5t-47.5 -22.5q-20 0 -37 14t-17 44z" />
    <glyph glyph-name="Eth" unicode="&#xd0;" horiz-adv-x="833" 
d="M3 -8l12 45q16 -4 23 -3q27 0 53 23q23 84 69 291q-18 -1 -47.5 -2.5t-42.5 -1.5l12 56q13 0 41.5 -1.5t44.5 -2.5q28 148 35 238q-35 29 -55 29q-9 0 -18 -6l12 45q58 -8 146 -8q31 0 101.5 4t97.5 4q140 0 225 -75t85 -226q0 -52 -14 -106t-46 -109t-79 -97.5
t-119.5 -69.5t-160.5 -27q-43 0 -111.5 4t-98.5 4q-29 0 -165 -8zM471 400l-12 -56q-27 0 -81 2t-81 2q-45 -198 -51 -291q77 -35 124 -35q66 0 119.5 39.5t85.5 102t49 134t17 141.5q0 26 -3 52t-13.5 59.5t-27.5 58.5t-48.5 42.5t-72.5 17.5q-57 0 -105 -31
q-27 -87 -63 -242q27 0 81.5 2t81.5 2z" />
    <glyph glyph-name="Ntilde" unicode="&#xd1;" horiz-adv-x="778" 
d="M115 657l11 45q82 -8 122 -8q76 0 124 8q0 -90 216 -536h2q24 118 33.5 168t20 138t10.5 162q-48 29 -72 29q-10 0 -28 -6l13 45q74 -8 140 -8t140 8l-11 -45q-12 6 -20 6q-25 0 -56 -29q-65 -150 -152 -555l-21 -96h-59q-190 389 -280 602h-2q-29 -124 -49.5 -244
t-27.5 -182t-7 -83q0 -7 2 -17q33 -25 64 -25q16 0 32 3l-12 -45q-68 8 -125 8q-52 0 -132 -8l12 45q6 -3 21 -3q27 0 39 20t37 102q22 71 60.5 231t52.5 239q-13 15 -34 26t-37 11q-14 0 -27 -6zM674 888l32 -25q-61 -86 -132 -86q-32 0 -86 28q-58 30 -85 30
q-44 0 -66 -58l-30 23q65 95 142 95q22 0 41.5 -7t61.5 -31q47 -26 61 -26q21 0 41 18.5t20 38.5z" />
    <glyph glyph-name="Ograve" unicode="&#xd2;" horiz-adv-x="815" 
d="M786 423q0 -112 -50.5 -212.5t-150 -166t-226.5 -65.5q-135 0 -206 89.5t-71 233.5q0 170 123.5 291.5t290.5 121.5q138 0 214 -80t76 -212zM238 233q0 -54 10 -101t40.5 -85t78.5 -38q59 0 110.5 50.5t83.5 124.5t50.5 150.5t18.5 134.5q0 213 -138 213
q-78 0 -138 -75.5t-88 -175.5t-28 -198zM583 767l-27 -27q-21 38 -73.5 71t-142.5 73q38 17 55.5 28.5t46.5 37.5q43 -70 67.5 -102.5t73.5 -80.5z" />
    <glyph glyph-name="Oacute" unicode="&#xd3;" horiz-adv-x="815" 
d="M786 423q0 -112 -50.5 -212.5t-150 -166t-226.5 -65.5q-135 0 -206 89.5t-71 233.5q0 170 123.5 291.5t290.5 121.5q138 0 214 -80t76 -212zM238 233q0 -54 10 -101t40.5 -85t78.5 -38q59 0 110.5 50.5t83.5 124.5t50.5 150.5t18.5 134.5q0 213 -138 213
q-78 0 -138 -75.5t-88 -175.5t-28 -198zM480 740l-26 27q24 19 78 88.5t65 94.5q23 -22 102 -57q-172 -66 -219 -153z" />
    <glyph glyph-name="Ocircumflex" unicode="&#xd4;" horiz-adv-x="815" 
d="M786 423q0 -112 -50.5 -212.5t-150 -166t-226.5 -65.5q-135 0 -206 89.5t-71 233.5q0 170 123.5 291.5t290.5 121.5q138 0 214 -80t76 -212zM238 233q0 -54 10 -101t40.5 -85t78.5 -38q59 0 110.5 50.5t83.5 124.5t50.5 150.5t18.5 134.5q0 213 -138 213
q-78 0 -138 -75.5t-88 -175.5t-28 -198zM387 740l-25 29q43 18 91 72t83 109h30q24 -119 97 -181l-30 -29l-104 105z" />
    <glyph glyph-name="Otilde" unicode="&#xd5;" horiz-adv-x="815" 
d="M786 423q0 -112 -50.5 -212.5t-150 -166t-226.5 -65.5q-135 0 -206 89.5t-71 233.5q0 170 123.5 291.5t290.5 121.5q138 0 214 -80t76 -212zM238 233q0 -54 10 -101t40.5 -85t78.5 -38q59 0 110.5 50.5t83.5 124.5t50.5 150.5t18.5 134.5q0 213 -138 213
q-78 0 -138 -75.5t-88 -175.5t-28 -198zM693 888l32 -25q-61 -86 -132 -86q-32 0 -86 28q-58 30 -85 30q-44 0 -66 -58l-30 23q65 95 142 95q22 0 41.5 -7t61.5 -31q47 -26 61 -26q21 0 41 18.5t20 38.5z" />
    <glyph glyph-name="Odieresis" unicode="&#xd6;" horiz-adv-x="815" 
d="M786 423q0 -112 -50.5 -212.5t-150 -166t-226.5 -65.5q-135 0 -206 89.5t-71 233.5q0 170 123.5 291.5t290.5 121.5q138 0 214 -80t76 -212zM238 233q0 -54 10 -101t40.5 -85t78.5 -38q59 0 110.5 50.5t83.5 124.5t50.5 150.5t18.5 134.5q0 213 -138 213
q-78 0 -138 -75.5t-88 -175.5t-28 -198zM364 828q0 35 22.5 57t50.5 22q22 0 35.5 -15.5t13.5 -41.5q0 -35 -20.5 -57.5t-47.5 -22.5q-20 0 -37 14t-17 44zM550 828q0 35 22.5 57t50.5 22q22 0 35.5 -15.5t13.5 -41.5q0 -35 -20.5 -57.5t-47.5 -22.5q-20 0 -37 14t-17 44z
" />
    <glyph glyph-name="multiply" unicode="&#xd7;" horiz-adv-x="600" 
d="M65 420l68 68l167 -167l167 167l68 -68l-167 -167l167 -167l-68 -68l-167 167l-167 -167l-68 68l167 167z" />
    <glyph glyph-name="Oslash" unicode="&#xd8;" horiz-adv-x="815" 
d="M246 148l363 452q-32 82 -117 82q-78 0 -138 -75.5t-88 -175.5t-28 -198q0 -48 8 -85zM624 548l-363 -452q33 -87 106 -87q59 0 110.5 50.5t83.5 124.5t50.5 150.5t18.5 134.5q0 45 -6 79zM733 759l39 -33q-19 -17 -35 -37l-37 -46q86 -80 86 -220q0 -112 -50.5 -212.5
t-149.5 -166t-224 -65.5q-96 0 -160 44l-21 -26q-29 -36 -47 -62l-38 33q7 8 23 25.5t23 25.5l26 32q-86 80 -86 251q0 170 123.5 291.5t290.5 121.5q103 0 170 -45l39 49q4 5 13.5 19.5t14.5 20.5z" />
    <glyph glyph-name="Ugrave" unicode="&#xd9;" horiz-adv-x="815" 
d="M104 657l12 45q92 -8 139 -8q62 0 188 8l-12 -45q-9 6 -21 6q-13 0 -23.5 -4t-16.5 -8.5t-20 -16.5q-40 -107 -72 -237t-32 -223q0 -48 23 -79t75 -31q44 0 92.5 27t83.5 67q20 76 51 243t35 233q-35 29 -55 29q-9 0 -18 -6l12 45q76 -8 153 -8q76 0 168 8l-12 -45
q-9 6 -19 6q-27 0 -64 -29q-32 -103 -72.5 -289.5t-48.5 -290.5q18 -20 49 -20q11 0 20 3l-12 -45q-74 8 -107 8q-30 0 -112 -8q6 22 13.5 63t11.5 57l-2 2q-124 -122 -256 -122q-69 0 -111 42t-42 118q0 28 4 60.5t7 51t12.5 63t12.5 58.5q37 187 43 249q-24 29 -53 29
q-9 0 -24 -6zM573 767l-27 -27q-21 38 -73.5 71t-142.5 73q38 17 55.5 28.5t46.5 37.5q43 -70 67.5 -102.5t73.5 -80.5z" />
    <glyph glyph-name="Uacute" unicode="&#xda;" horiz-adv-x="815" 
d="M104 657l12 45q92 -8 139 -8q62 0 188 8l-12 -45q-9 6 -21 6q-13 0 -23.5 -4t-16.5 -8.5t-20 -16.5q-40 -107 -72 -237t-32 -223q0 -48 23 -79t75 -31q44 0 92.5 27t83.5 67q20 76 51 243t35 233q-35 29 -55 29q-9 0 -18 -6l12 45q76 -8 153 -8q76 0 168 8l-12 -45
q-9 6 -19 6q-27 0 -64 -29q-32 -103 -72.5 -289.5t-48.5 -290.5q18 -20 49 -20q11 0 20 3l-12 -45q-74 8 -107 8q-30 0 -112 -8q6 22 13.5 63t11.5 57l-2 2q-124 -122 -256 -122q-69 0 -111 42t-42 118q0 28 4 60.5t7 51t12.5 63t12.5 58.5q37 187 43 249q-24 29 -53 29
q-9 0 -24 -6zM470 740l-26 27q24 19 78 88.5t65 94.5q23 -22 102 -57q-172 -66 -219 -153z" />
    <glyph glyph-name="Ucircumflex" unicode="&#xdb;" horiz-adv-x="815" 
d="M104 657l12 45q92 -8 139 -8q62 0 188 8l-12 -45q-9 6 -21 6q-13 0 -23.5 -4t-16.5 -8.5t-20 -16.5q-40 -107 -72 -237t-32 -223q0 -48 23 -79t75 -31q44 0 92.5 27t83.5 67q20 76 51 243t35 233q-35 29 -55 29q-9 0 -18 -6l12 45q76 -8 153 -8q76 0 168 8l-12 -45
q-9 6 -19 6q-27 0 -64 -29q-32 -103 -72.5 -289.5t-48.5 -290.5q18 -20 49 -20q11 0 20 3l-12 -45q-74 8 -107 8q-30 0 -112 -8q6 22 13.5 63t11.5 57l-2 2q-124 -122 -256 -122q-69 0 -111 42t-42 118q0 28 4 60.5t7 51t12.5 63t12.5 58.5q37 187 43 249q-24 29 -53 29
q-9 0 -24 -6zM377 740l-25 29q43 18 91 72t83 109h30q24 -119 97 -181l-30 -29l-104 105z" />
    <glyph glyph-name="Udieresis" unicode="&#xdc;" horiz-adv-x="815" 
d="M104 657l12 45q92 -8 139 -8q62 0 188 8l-12 -45q-9 6 -21 6q-13 0 -23.5 -4t-16.5 -8.5t-20 -16.5q-40 -107 -72 -237t-32 -223q0 -48 23 -79t75 -31q44 0 92.5 27t83.5 67q20 76 51 243t35 233q-35 29 -55 29q-9 0 -18 -6l12 45q76 -8 153 -8q76 0 168 8l-12 -45
q-9 6 -19 6q-27 0 -64 -29q-32 -103 -72.5 -289.5t-48.5 -290.5q18 -20 49 -20q11 0 20 3l-12 -45q-74 8 -107 8q-30 0 -112 -8q6 22 13.5 63t11.5 57l-2 2q-124 -122 -256 -122q-69 0 -111 42t-42 118q0 28 4 60.5t7 51t12.5 63t12.5 58.5q37 187 43 249q-24 29 -53 29
q-9 0 -24 -6zM354 828q0 35 22.5 57t50.5 22q22 0 35.5 -15.5t13.5 -41.5q0 -35 -20.5 -57.5t-47.5 -22.5q-20 0 -37 14t-17 44zM540 828q0 35 22.5 57t50.5 22q22 0 35.5 -15.5t13.5 -41.5q0 -35 -20.5 -57.5t-47.5 -22.5q-20 0 -37 14t-17 44z" />
    <glyph glyph-name="Yacute" unicode="&#xdd;" horiz-adv-x="685" 
d="M143 -8l12 45q9 -3 23 -3q26 0 57 23q40 164 54 234l-102 266q-30 77 -37 84q-22 22 -45 22q-9 0 -19 -6l12 45q60 -8 160 -8q101 0 175 8l-12 -45q-12 6 -24 6q-29 0 -72 -29q23 -140 93 -303q116 146 185 307q-37 25 -69 25q-12 0 -28 -6l12 45q66 -8 127 -8
q76 0 138 8l-12 -45q-7 6 -15 6q-15 0 -35 -16t-33 -31.5t-34 -43t-23 -30.5l-203 -251q-33 -144 -39 -236q21 -21 49 -21q12 0 22 3l-12 -45q-62 8 -147 8q-82 0 -158 -8zM430 740l-26 27q24 19 78 88.5t65 94.5q23 -22 102 -57q-172 -66 -219 -153z" />
    <glyph glyph-name="Thorn" unicode="&#xde;" horiz-adv-x="667" 
d="M-6 -8l12 45q16 -4 23 -3q27 0 53 23q35 128 70.5 302.5t41.5 274.5q-35 29 -55 29q-9 0 -18 -6l12 45q76 -8 153 -8q76 0 168 8l-12 -45q-9 6 -19 6q-27 0 -64 -29l-14 -56q62 6 88 6q103 0 170 -46t67 -143q0 -94 -88.5 -163t-216.5 -69q-45 0 -113 12
q-14 -73 -16 -115q35 -26 64 -26q18 0 29 3l-12 -45q-74 8 -156 8q-75 0 -167 -8zM514 422q0 61 -28 95t-78 34q-30 0 -75 -25q-55 -216 -70 -302q22 -28 75 -28q44 0 80 25t55.5 61.5t30 73t10.5 66.5z" />
    <glyph glyph-name="germandbls" unicode="&#xdf;" horiz-adv-x="593" 
d="M60 84l21 187q8 71 18.5 126t33.5 118t54.5 104t83.5 68.5t119 27.5q101 0 146 -35t45 -78q0 -31 -23.5 -61t-52.5 -48.5t-62 -39.5t-44 -34q8 -28 31.5 -58.5t46.5 -52.5t41 -57.5t18 -76.5q0 -24 -9.5 -53t-30 -60.5t-61.5 -52t-96 -20.5q-64 0 -94 28t-30 64
q0 28 18 48.5t44 20.5q23 0 38.5 -12.5t15.5 -35.5q0 -18 -11.5 -34.5t-30.5 -21.5q0 -33 42 -33q37 0 63 29.5t26 68.5q0 35 -16 67.5t-35.5 54t-35.5 48.5t-16 52t32.5 71.5t65 101t32.5 98.5q0 40 -22 61t-49 21q-62 0 -93 -59t-51 -195l-43 -300q-26 -178 -103 -276.5
t-155 -98.5q-33 0 -55 17.5t-22 45.5q0 34 19.5 55.5t46.5 21.5q47 0 47 -45q0 -37 -32 -53q2 -12 17 -12q39 0 66.5 89t41.5 209z" />
    <glyph glyph-name="agrave" unicode="&#xe0;" horiz-adv-x="611" 
d="M563 161l31 -14q-23 -53 -74.5 -108.5t-111.5 -55.5q-34 0 -52 23t-18 58q0 32 7 57l-2 2q-24 -32 -36 -46.5t-39 -41.5t-56 -39.5t-62 -12.5q-106 0 -106 165q0 29 6.5 66.5t26.5 85.5t50.5 86.5t84 65.5t120.5 27q30 0 84 -10t74 -10q21 0 63 10q-23 -71 -59.5 -218
t-36.5 -188q0 -24 11 -24q26 0 56.5 43t38.5 79zM355 182q35 166 50 229q-31 38 -71 38q-39 0 -70.5 -37t-49 -90.5t-27 -105.5t-9.5 -91q0 -94 27 -94q28 0 78.5 52.5t71.5 98.5zM441 554l-27 -27q-21 38 -73.5 71t-142.5 73q38 17 55.5 28.5t46.5 37.5q43 -70 67.5 -102.5
t73.5 -80.5z" />
    <glyph glyph-name="aacute" unicode="&#xe1;" horiz-adv-x="611" 
d="M563 161l31 -14q-23 -53 -74.5 -108.5t-111.5 -55.5q-34 0 -52 23t-18 58q0 32 7 57l-2 2q-24 -32 -36 -46.5t-39 -41.5t-56 -39.5t-62 -12.5q-106 0 -106 165q0 29 6.5 66.5t26.5 85.5t50.5 86.5t84 65.5t120.5 27q30 0 84 -10t74 -10q21 0 63 10q-23 -71 -59.5 -218
t-36.5 -188q0 -24 11 -24q26 0 56.5 43t38.5 79zM355 182q35 166 50 229q-31 38 -71 38q-39 0 -70.5 -37t-49 -90.5t-27 -105.5t-9.5 -91q0 -94 27 -94q28 0 78.5 52.5t71.5 98.5zM338 527l-26 27q24 19 78 88.5t65 94.5q23 -22 102 -57q-172 -66 -219 -153z" />
    <glyph glyph-name="acircumflex" unicode="&#xe2;" horiz-adv-x="611" 
d="M563 161l31 -14q-23 -53 -74.5 -108.5t-111.5 -55.5q-34 0 -52 23t-18 58q0 32 7 57l-2 2q-24 -32 -36 -46.5t-39 -41.5t-56 -39.5t-62 -12.5q-106 0 -106 165q0 29 6.5 66.5t26.5 85.5t50.5 86.5t84 65.5t120.5 27q30 0 84 -10t74 -10q21 0 63 10q-23 -71 -59.5 -218
t-36.5 -188q0 -24 11 -24q26 0 56.5 43t38.5 79zM355 182q35 166 50 229q-31 38 -71 38q-39 0 -70.5 -37t-49 -90.5t-27 -105.5t-9.5 -91q0 -94 27 -94q28 0 78.5 52.5t71.5 98.5zM245 527l-25 29q43 18 91 72t83 109h30q24 -119 97 -181l-30 -29l-104 105z" />
    <glyph glyph-name="atilde" unicode="&#xe3;" horiz-adv-x="611" 
d="M563 161l31 -14q-23 -53 -74.5 -108.5t-111.5 -55.5q-34 0 -52 23t-18 58q0 32 7 57l-2 2q-24 -32 -36 -46.5t-39 -41.5t-56 -39.5t-62 -12.5q-106 0 -106 165q0 29 6.5 66.5t26.5 85.5t50.5 86.5t84 65.5t120.5 27q30 0 84 -10t74 -10q21 0 63 10q-23 -71 -59.5 -218
t-36.5 -188q0 -24 11 -24q26 0 56.5 43t38.5 79zM355 182q35 166 50 229q-31 38 -71 38q-39 0 -70.5 -37t-49 -90.5t-27 -105.5t-9.5 -91q0 -94 27 -94q28 0 78.5 52.5t71.5 98.5zM551 675l32 -25q-61 -86 -132 -86q-32 0 -86 28q-58 30 -85 30q-44 0 -66 -58l-30 23
q65 95 142 95q22 0 41.5 -7t61.5 -31q47 -26 61 -26q21 0 41 18.5t20 38.5z" />
    <glyph glyph-name="adieresis" unicode="&#xe4;" horiz-adv-x="611" 
d="M563 161l31 -14q-23 -53 -74.5 -108.5t-111.5 -55.5q-34 0 -52 23t-18 58q0 32 7 57l-2 2q-24 -32 -36 -46.5t-39 -41.5t-56 -39.5t-62 -12.5q-106 0 -106 165q0 29 6.5 66.5t26.5 85.5t50.5 86.5t84 65.5t120.5 27q30 0 84 -10t74 -10q21 0 63 10q-23 -71 -59.5 -218
t-36.5 -188q0 -24 11 -24q26 0 56.5 43t38.5 79zM355 182q35 166 50 229q-31 38 -71 38q-39 0 -70.5 -37t-49 -90.5t-27 -105.5t-9.5 -91q0 -94 27 -94q28 0 78.5 52.5t71.5 98.5zM222 615q0 35 22.5 57t50.5 22q22 0 35.5 -15.5t13.5 -41.5q0 -35 -20.5 -57.5t-47.5 -22.5
q-20 0 -37 14t-17 44zM408 615q0 35 22.5 57t50.5 22q22 0 35.5 -15.5t13.5 -41.5q0 -35 -20.5 -57.5t-47.5 -22.5q-20 0 -37 14t-17 44z" />
    <glyph glyph-name="aring" unicode="&#xe5;" horiz-adv-x="611" 
d="M563 161l31 -14q-23 -53 -74.5 -108.5t-111.5 -55.5q-34 0 -52 23t-18 58q0 32 7 57l-2 2q-24 -32 -36 -46.5t-39 -41.5t-56 -39.5t-62 -12.5q-106 0 -106 165q0 29 6.5 66.5t26.5 85.5t50.5 86.5t84 65.5t120.5 27q30 0 84 -10t74 -10q21 0 63 10q-23 -71 -59.5 -218
t-36.5 -188q0 -24 11 -24q26 0 56.5 43t38.5 79zM355 182q35 166 50 229q-31 38 -71 38q-39 0 -70.5 -37t-49 -90.5t-27 -105.5t-9.5 -91q0 -94 27 -94q28 0 78.5 52.5t71.5 98.5zM286 613q0 19 9 43.5t39 48.5t76 24q45 0 64.5 -27t19.5 -57q0 -46 -33.5 -86t-89.5 -40
q-31 0 -58 21.5t-27 72.5zM331 602q0 -23 11.5 -39.5t34.5 -16.5q36 0 54 36.5t18 63.5q0 56 -45 56q-32 0 -52.5 -31t-20.5 -69z" />
    <glyph glyph-name="ae" unicode="&#xe6;" horiz-adv-x="815" 
d="M749 148l33 -21q-106 -144 -261 -144q-78 0 -119 46.5t-48 110.5h-2q-100 -157 -205 -157q-34 0 -57 16t-34 42.5t-15 51t-4 51.5q0 42 10.5 87.5t34 90t56 79.5t80.5 56.5t104 21.5q14 0 54.5 -5.5t55.5 -5.5q38 0 75 11l-27 -65h2q27 22 44.5 33t46.5 21.5t60 10.5
q61 0 107.5 -30.5t46.5 -101.5q0 -76 -87 -131q-78 -48 -215 -48v-13q0 -60 27.5 -93.5t77.5 -33.5q46 0 92 35t67 85zM677 384q0 37 -11.5 51t-35.5 14q-31 0 -58.5 -28.5t-44.5 -70.5t-27 -80.5t-13 -66.5q21 -8 42 -8q37 0 67 21.5t46.5 52.5t25.5 61.5t9 53.5zM174 81
q0 -46 26 -46q31 0 80 51.5t75 101.5q19 126 50 226q-1 1 -4 3q-40 31 -71 32q-44 0 -77.5 -47.5t-49 -115t-22.5 -120.5t-7 -85z" />
    <glyph glyph-name="ccedilla" unicode="&#xe7;" horiz-adv-x="500" 
d="M444 170l35 -18q-6 -14 -22 -35t-43.5 -49.5t-69.5 -51.5t-89 -30l-26 -44q85 -17 85 -65q0 -37 -49.5 -66t-142.5 -35l12 36q15 -3 29 -3q36 0 59.5 16t23.5 31q0 18 -28 28.5t-56 12.5l58 86h-3q-47 0 -82 15.5t-54 42.5t-28 57.5t-9 65.5q0 124 83 219.5t214 95.5
q63 0 100 -28t37 -73q0 -44 -25.5 -73t-56.5 -29q-27 0 -42.5 18t-15.5 45q0 25 12.5 47.5t36.5 32.5q-13 27 -47 27q-38 0 -69.5 -32t-49.5 -79.5t-27.5 -95t-9.5 -84.5q0 -57 24.5 -90.5t68.5 -33.5q53 0 101.5 42t65.5 97z" />
    <glyph glyph-name="egrave" unicode="&#xe8;" horiz-adv-x="519" 
d="M377 384q0 37 -11.5 51t-36.5 14q-43 0 -76.5 -44t-49 -97.5t-19.5 -104.5q26 -8 45 -8q37 0 67 21.5t46.5 52.5t25.5 61.5t9 53.5zM449 148l33 -21q-106 -144 -261 -144q-91 0 -134 49t-43 135q0 121 81.5 216.5t198.5 95.5q28 0 54 -6t52 -19.5t41.5 -41t15.5 -65.5
q0 -76 -87 -131q-82 -51 -216 -48v-13q0 -59 28 -93t78 -34q46 0 92 35t67 85zM395 554l-27 -27q-21 38 -73.5 71t-142.5 73q38 17 55.5 28.5t46.5 37.5q43 -70 67.5 -102.5t73.5 -80.5z" />
    <glyph glyph-name="eacute" unicode="&#xe9;" horiz-adv-x="519" 
d="M377 384q0 37 -11.5 51t-36.5 14q-43 0 -76.5 -44t-49 -97.5t-19.5 -104.5q26 -8 45 -8q37 0 67 21.5t46.5 52.5t25.5 61.5t9 53.5zM449 148l33 -21q-106 -144 -261 -144q-91 0 -134 49t-43 135q0 121 81.5 216.5t198.5 95.5q28 0 54 -6t52 -19.5t41.5 -41t15.5 -65.5
q0 -76 -87 -131q-82 -51 -216 -48v-13q0 -59 28 -93t78 -34q46 0 92 35t67 85zM292 527l-26 27q24 19 78 88.5t65 94.5q23 -22 102 -57q-172 -66 -219 -153z" />
    <glyph glyph-name="ecircumflex" unicode="&#xea;" horiz-adv-x="519" 
d="M377 384q0 37 -11.5 51t-36.5 14q-43 0 -76.5 -44t-49 -97.5t-19.5 -104.5q26 -8 45 -8q37 0 67 21.5t46.5 52.5t25.5 61.5t9 53.5zM449 148l33 -21q-106 -144 -261 -144q-91 0 -134 49t-43 135q0 121 81.5 216.5t198.5 95.5q28 0 54 -6t52 -19.5t41.5 -41t15.5 -65.5
q0 -76 -87 -131q-82 -51 -216 -48v-13q0 -59 28 -93t78 -34q46 0 92 35t67 85zM199 527l-25 29q43 18 91 72t83 109h30q24 -119 97 -181l-30 -29l-104 105z" />
    <glyph glyph-name="edieresis" unicode="&#xeb;" horiz-adv-x="519" 
d="M377 384q0 37 -11.5 51t-36.5 14q-43 0 -76.5 -44t-49 -97.5t-19.5 -104.5q26 -8 45 -8q37 0 67 21.5t46.5 52.5t25.5 61.5t9 53.5zM449 148l33 -21q-106 -144 -261 -144q-91 0 -134 49t-43 135q0 121 81.5 216.5t198.5 95.5q28 0 54 -6t52 -19.5t41.5 -41t15.5 -65.5
q0 -76 -87 -131q-82 -51 -216 -48v-13q0 -59 28 -93t78 -34q46 0 92 35t67 85zM176 615q0 35 22.5 57t50.5 22q22 0 35.5 -15.5t13.5 -41.5q0 -35 -20.5 -57.5t-47.5 -22.5q-20 0 -37 14t-17 44zM362 615q0 35 22.5 57t50.5 22q22 0 35.5 -15.5t13.5 -41.5
q0 -35 -20.5 -57.5t-47.5 -22.5q-20 0 -37 14t-17 44z" />
    <glyph glyph-name="igrave" unicode="&#xec;" horiz-adv-x="352" 
d="M51 297l-36 17q94 165 207 165q30 0 49 -17t19 -46q0 -20 -43.5 -166.5t-43.5 -177.5q0 -29 15 -29q21 0 48 31.5t42 83.5l33 -13q-6 -15 -17.5 -33.5t-36 -52t-61 -55t-77.5 -21.5q-28 0 -49.5 19t-21.5 64q0 50 36 179t36 156q0 14 -10 14q-24 0 -53.5 -44.5
t-35.5 -73.5zM311 554l-27 -27q-21 38 -73.5 71t-142.5 73q38 17 55.5 28.5t46.5 37.5q43 -70 67.5 -102.5t73.5 -80.5z" />
    <glyph glyph-name="iacute" unicode="&#xed;" horiz-adv-x="352" 
d="M51 297l-36 17q94 165 207 165q30 0 49 -17t19 -46q0 -20 -43.5 -166.5t-43.5 -177.5q0 -29 15 -29q21 0 48 31.5t42 83.5l33 -13q-6 -15 -17.5 -33.5t-36 -52t-61 -55t-77.5 -21.5q-28 0 -49.5 19t-21.5 64q0 50 36 179t36 156q0 14 -10 14q-24 0 -53.5 -44.5
t-35.5 -73.5zM208 527l-26 27q24 19 78 88.5t65 94.5q23 -22 102 -57q-172 -66 -219 -153z" />
    <glyph glyph-name="icircumflex" unicode="&#xee;" horiz-adv-x="352" 
d="M51 297l-36 17q94 165 207 165q30 0 49 -17t19 -46q0 -20 -43.5 -166.5t-43.5 -177.5q0 -29 15 -29q21 0 48 31.5t42 83.5l33 -13q-6 -15 -17.5 -33.5t-36 -52t-61 -55t-77.5 -21.5q-28 0 -49.5 19t-21.5 64q0 50 36 179t36 156q0 14 -10 14q-24 0 -53.5 -44.5
t-35.5 -73.5zM115 527l-25 29q43 18 91 72t83 109h30q24 -119 97 -181l-30 -29l-104 105z" />
    <glyph glyph-name="idieresis" unicode="&#xef;" horiz-adv-x="352" 
d="M51 297l-36 17q94 165 207 165q30 0 49 -17t19 -46q0 -20 -43.5 -166.5t-43.5 -177.5q0 -29 15 -29q21 0 48 31.5t42 83.5l33 -13q-6 -15 -17.5 -33.5t-36 -52t-61 -55t-77.5 -21.5q-28 0 -49.5 19t-21.5 64q0 50 36 179t36 156q0 14 -10 14q-24 0 -53.5 -44.5
t-35.5 -73.5zM92 615q0 35 22.5 57t50.5 22q22 0 35.5 -15.5t13.5 -41.5q0 -35 -20.5 -57.5t-47.5 -22.5q-20 0 -37 14t-17 44zM278 615q0 35 22.5 57t50.5 22q22 0 35.5 -15.5t13.5 -41.5q0 -35 -20.5 -57.5t-47.5 -22.5q-20 0 -37 14t-17 44z" />
    <glyph glyph-name="eth" unicode="&#xf0;" horiz-adv-x="574" 
d="M181 138q0 -128 63 -128q59 0 104 103.5t45 220.5q0 115 -65 115q-39 0 -69 -35.5t-46 -88.5t-24 -101.5t-8 -85.5zM236 689l54 31q44 -14 94 -48q41 17 96 48l36 -40q-45 -12 -100 -39q55 -58 84.5 -129t29.5 -188q0 -144 -77 -242.5t-209 -98.5q-56 0 -97.5 21
t-62.5 54.5t-30.5 68t-9.5 69.5q0 125 78 204t200 79q42 0 71 -17q-1 40 -17.5 81t-40.5 63q-62 -25 -103 -54l-36 40q35 11 111 44q-33 32 -71 53z" />
    <glyph glyph-name="ntilde" unicode="&#xf1;" horiz-adv-x="630" 
d="M583 158l36 -13q-16 -45 -71 -103.5t-123 -58.5q-71 0 -71 77q0 53 36 190t36 152q0 13 -10 13q-31 0 -89.5 -61t-79.5 -98q-10 -40 -61 -264q-36 8 -59 8q-33 0 -69 -8q25 83 55.5 217.5t30.5 176.5q0 25 -12 25q-19 0 -45.5 -36.5t-35.5 -85.5l-36 13q35 88 86.5 132.5
t101.5 44.5q35 0 52 -18t17 -48q0 -48 -8 -93l2 -2q48 71 108 116t116 45q29 0 51 -17t22 -52q0 -23 -40.5 -157.5t-40.5 -186.5q0 -23 17 -23q19 0 48.5 37t35.5 78zM548 675l32 -25q-61 -86 -132 -86q-32 0 -86 28q-58 30 -85 30q-44 0 -66 -58l-30 23q65 95 142 95
q22 0 41.5 -7t61.5 -31q47 -26 61 -26q21 0 41 18.5t20 38.5z" />
    <glyph glyph-name="ograve" unicode="&#xf2;" horiz-adv-x="574" 
d="M44 196q0 125 78 204t200 79q86 0 147 -50.5t61 -144.5q0 -74 -32.5 -141.5t-99.5 -113.5t-154 -46q-56 0 -97.5 21t-62.5 54.5t-30.5 68t-9.5 69.5zM181 138q0 -71 13 -99.5t50 -28.5q39 0 74.5 51t55 126t19.5 147q0 62 -20 88.5t-47 26.5q-60 0 -102.5 -94.5
t-42.5 -216.5zM422 554l-27 -27q-21 38 -73.5 71t-142.5 73q38 17 55.5 28.5t46.5 37.5q43 -70 67.5 -102.5t73.5 -80.5z" />
    <glyph glyph-name="oacute" unicode="&#xf3;" horiz-adv-x="574" 
d="M44 196q0 125 78 204t200 79q86 0 147 -50.5t61 -144.5q0 -74 -32.5 -141.5t-99.5 -113.5t-154 -46q-56 0 -97.5 21t-62.5 54.5t-30.5 68t-9.5 69.5zM181 138q0 -71 13 -99.5t50 -28.5q39 0 74.5 51t55 126t19.5 147q0 62 -20 88.5t-47 26.5q-60 0 -102.5 -94.5
t-42.5 -216.5zM319 527l-26 27q24 19 78 88.5t65 94.5q23 -22 102 -57q-172 -66 -219 -153z" />
    <glyph glyph-name="ocircumflex" unicode="&#xf4;" horiz-adv-x="574" 
d="M44 196q0 125 78 204t200 79q86 0 147 -50.5t61 -144.5q0 -74 -32.5 -141.5t-99.5 -113.5t-154 -46q-56 0 -97.5 21t-62.5 54.5t-30.5 68t-9.5 69.5zM181 138q0 -71 13 -99.5t50 -28.5q39 0 74.5 51t55 126t19.5 147q0 62 -20 88.5t-47 26.5q-60 0 -102.5 -94.5
t-42.5 -216.5zM214 527l-25 29q43 18 91 72t83 109h30q24 -119 97 -181l-30 -29l-104 105z" />
    <glyph glyph-name="otilde" unicode="&#xf5;" horiz-adv-x="574" 
d="M44 196q0 125 78 204t200 79q86 0 147 -50.5t61 -144.5q0 -74 -32.5 -141.5t-99.5 -113.5t-154 -46q-56 0 -97.5 21t-62.5 54.5t-30.5 68t-9.5 69.5zM181 138q0 -71 13 -99.5t50 -28.5q39 0 74.5 51t55 126t19.5 147q0 62 -20 88.5t-47 26.5q-60 0 -102.5 -94.5
t-42.5 -216.5zM532 675l32 -25q-61 -86 -132 -86q-32 0 -86 28q-58 30 -85 30q-44 0 -66 -58l-30 23q65 95 142 95q22 0 41.5 -7t61.5 -31q47 -26 61 -26q21 0 41 18.5t20 38.5z" />
    <glyph glyph-name="odieresis" unicode="&#xf6;" horiz-adv-x="574" 
d="M44 196q0 125 78 204t200 79q86 0 147 -50.5t61 -144.5q0 -74 -32.5 -141.5t-99.5 -113.5t-154 -46q-56 0 -97.5 21t-62.5 54.5t-30.5 68t-9.5 69.5zM181 138q0 -71 13 -99.5t50 -28.5q39 0 74.5 51t55 126t19.5 147q0 62 -20 88.5t-47 26.5q-60 0 -102.5 -94.5
t-42.5 -216.5zM203 615q0 35 22.5 57t50.5 22q22 0 35.5 -15.5t13.5 -41.5q0 -35 -20.5 -57.5t-47.5 -22.5q-20 0 -37 14t-17 44zM389 615q0 35 22.5 57t50.5 22q22 0 35.5 -15.5t13.5 -41.5q0 -35 -20.5 -57.5t-47.5 -22.5q-20 0 -37 14t-17 44z" />
    <glyph glyph-name="divide" unicode="&#xf7;" horiz-adv-x="600" 
d="M47 205v96h506v-96h-506zM222 46q0 32 23 55t55 23t55 -23t23 -55t-23 -55t-55 -23t-55 23t-23 55zM222 460q0 32 23 55t55 23t55 -23t23 -55t-23 -55t-55 -23t-55 23t-23 55z" />
    <glyph glyph-name="oslash" unicode="&#xf8;" horiz-adv-x="574" 
d="M182 123l204 274q-18 52 -60 52q-60 0 -102.5 -94.5t-42.5 -216.5q0 -10 1 -15zM391 341l-203 -273q11 -58 56 -58q59 0 104 103.5t45 220.5v7h-2zM505 560l34 -28q-14 -14 -26 -29l-51 -69q68 -53 68 -150q0 -74 -32.5 -141.5t-99.5 -113.5t-154 -46q-60 0 -102 24
l-49 -65q-12 -16 -24 -40l-34 28q3 4 13 15.5t15 17.5l48 65q-67 59 -67 168q0 125 78 204t200 79q58 0 107 -24l54 72q8 11 22 33z" />
    <glyph glyph-name="ugrave" unicode="&#xf9;" horiz-adv-x="630" 
d="M51 292l-36 15q11 25 26 50.5t39 55t57.5 48t70.5 18.5q69 0 69 -81q0 -50 -38 -187t-38 -151q0 -21 17 -21q54 0 156 131q17 89 70 300q37 -8 66 -8q34 0 68 8q-22 -51 -61 -203.5t-39 -201.5q0 -26 14 -26q21 0 53.5 40.5t39.5 80.5l34 -14q-33 -63 -82.5 -113
t-108.5 -50q-66 0 -66 88q0 26 4 45l-2 2q-120 -135 -217 -135q-41 0 -57.5 17t-16.5 50q0 30 36.5 168t36.5 173q0 20 -11 20q-20 0 -47 -33.5t-37 -85.5zM450 554l-27 -27q-21 38 -73.5 71t-142.5 73q38 17 55.5 28.5t46.5 37.5q43 -70 67.5 -102.5t73.5 -80.5z" />
    <glyph glyph-name="uacute" unicode="&#xfa;" horiz-adv-x="630" 
d="M51 292l-36 15q11 25 26 50.5t39 55t57.5 48t70.5 18.5q69 0 69 -81q0 -50 -38 -187t-38 -151q0 -21 17 -21q54 0 156 131q17 89 70 300q37 -8 66 -8q34 0 68 8q-22 -51 -61 -203.5t-39 -201.5q0 -26 14 -26q21 0 53.5 40.5t39.5 80.5l34 -14q-33 -63 -82.5 -113
t-108.5 -50q-66 0 -66 88q0 26 4 45l-2 2q-120 -135 -217 -135q-41 0 -57.5 17t-16.5 50q0 30 36.5 168t36.5 173q0 20 -11 20q-20 0 -47 -33.5t-37 -85.5zM347 527l-26 27q24 19 78 88.5t65 94.5q23 -22 102 -57q-172 -66 -219 -153z" />
    <glyph glyph-name="ucircumflex" unicode="&#xfb;" horiz-adv-x="630" 
d="M51 292l-36 15q11 25 26 50.5t39 55t57.5 48t70.5 18.5q69 0 69 -81q0 -50 -38 -187t-38 -151q0 -21 17 -21q54 0 156 131q17 89 70 300q37 -8 66 -8q34 0 68 8q-22 -51 -61 -203.5t-39 -201.5q0 -26 14 -26q21 0 53.5 40.5t39.5 80.5l34 -14q-33 -63 -82.5 -113
t-108.5 -50q-66 0 -66 88q0 26 4 45l-2 2q-120 -135 -217 -135q-41 0 -57.5 17t-16.5 50q0 30 36.5 168t36.5 173q0 20 -11 20q-20 0 -47 -33.5t-37 -85.5zM242 527l-25 29q43 18 91 72t83 109h30q24 -119 97 -181l-30 -29l-104 105z" />
    <glyph glyph-name="udieresis" unicode="&#xfc;" horiz-adv-x="630" 
d="M51 292l-36 15q11 25 26 50.5t39 55t57.5 48t70.5 18.5q69 0 69 -81q0 -50 -38 -187t-38 -151q0 -21 17 -21q54 0 156 131q17 89 70 300q37 -8 66 -8q34 0 68 8q-22 -51 -61 -203.5t-39 -201.5q0 -26 14 -26q21 0 53.5 40.5t39.5 80.5l34 -14q-33 -63 -82.5 -113
t-108.5 -50q-66 0 -66 88q0 26 4 45l-2 2q-120 -135 -217 -135q-41 0 -57.5 17t-16.5 50q0 30 36.5 168t36.5 173q0 20 -11 20q-20 0 -47 -33.5t-37 -85.5zM219 615q0 35 22.5 57t50.5 22q22 0 35.5 -15.5t13.5 -41.5q0 -35 -20.5 -57.5t-47.5 -22.5q-20 0 -37 14t-17 44z
M405 615q0 35 22.5 57t50.5 22q22 0 35.5 -15.5t13.5 -41.5q0 -35 -20.5 -57.5t-47.5 -22.5q-20 0 -37 14t-17 44z" />
    <glyph glyph-name="yacute" unicode="&#xfd;" horiz-adv-x="593" 
d="M53 292l-34 14q6 21 22 48t39.5 56t58 49t70.5 20q26 0 49.5 -17t23.5 -57q0 -49 -38.5 -190.5t-38.5 -158.5q0 -19 15 -19q25 0 77 46t85 92q37 147 64 295q48 -8 56 -8q38 0 78 8q-25 -58 -75 -296l-25 -121q-62 -297 -309 -297q-56 0 -100 25t-44 74q0 35 20 54.5
t50 19.5q28 0 43 -17t15 -41t-12.5 -38t-27.5 -17q2 -14 17 -23.5t43 -9.5q44 0 77 24t54 68.5t33 87.5t23 102l10 55l-2 2q-7 -13 -35.5 -42t-81.5 -62t-99 -33q-77 0 -77 65q0 27 37 166.5t37 170.5q0 24 -17 24q-9 0 -21 -9t-29.5 -37.5t-30.5 -72.5zM329 527l-26 27
q24 19 78 88.5t65 94.5q23 -22 102 -57q-172 -66 -219 -153z" />
    <glyph glyph-name="thorn" unicode="&#xfe;" horiz-adv-x="593" 
d="M-54 -232l6 42q11 -6 20 -6q21 0 41 20q104 438 168 808q-22 20 -44 20q-7 0 -21 -6l9 42q117 0 221 32q-17 -54 -29 -108l-65 -259l-3 -11l2 -2q94 139 184 139q114 0 114 -163q0 -36 -8 -76t-30 -86t-54 -82t-86.5 -60t-121.5 -24q-40 0 -74 12q-39 -176 -39 -178
q26 -18 41 -18q7 0 17 6l-12 -42q-101 8 -114 8t-122 -8zM239 282l-51 -226q28 -44 68 -44q49 0 86.5 63t53.5 137.5t16 135.5q0 79 -30 79q-23 0 -73.5 -52.5t-69.5 -92.5z" />
    <glyph glyph-name="ydieresis" unicode="&#xff;" horiz-adv-x="593" 
d="M53 292l-34 14q6 21 22 48t39.5 56t58 49t70.5 20q26 0 49.5 -17t23.5 -57q0 -49 -38.5 -190.5t-38.5 -158.5q0 -19 15 -19q25 0 77 46t85 92q37 147 64 295q48 -8 56 -8q38 0 78 8q-25 -58 -75 -296l-25 -121q-62 -297 -309 -297q-56 0 -100 25t-44 74q0 35 20 54.5
t50 19.5q28 0 43 -17t15 -41t-12.5 -38t-27.5 -17q2 -14 17 -23.5t43 -9.5q44 0 77 24t54 68.5t33 87.5t23 102l10 55l-2 2q-7 -13 -35.5 -42t-81.5 -62t-99 -33q-77 0 -77 65q0 27 37 166.5t37 170.5q0 24 -17 24q-9 0 -21 -9t-29.5 -37.5t-30.5 -72.5zM213 615
q0 35 22.5 57t50.5 22q22 0 35.5 -15.5t13.5 -41.5q0 -35 -20.5 -57.5t-47.5 -22.5q-20 0 -37 14t-17 44zM399 615q0 35 22.5 57t50.5 22q22 0 35.5 -15.5t13.5 -41.5q0 -35 -20.5 -57.5t-47.5 -22.5q-20 0 -37 14t-17 44z" />
    <glyph glyph-name="dotlessi" unicode="&#x131;" horiz-adv-x="352" 
d="M51 297l-36 17q94 165 207 165q30 0 49 -17t19 -46q0 -20 -43.5 -166.5t-43.5 -177.5q0 -29 15 -29q21 0 48 31.5t42 83.5l33 -13q-6 -15 -17.5 -33.5t-36 -52t-61 -55t-77.5 -21.5q-28 0 -49.5 19t-21.5 64q0 50 36 179t36 156q0 14 -10 14q-24 0 -53.5 -44.5
t-35.5 -73.5z" />
    <glyph glyph-name="Lslash" unicode="&#x141;" horiz-adv-x="574" 
d="M-6 -8l12 45q16 -4 23 -3q27 0 53 23q27 98 45 186q-78 -48 -94 -59l12 75q45 20 96 50q11 42 31.5 160.5t21.5 164.5q-35 29 -55 29q-9 0 -18 -6l12 45q64 -8 144 -8q81 0 181 8l-12 -45q-10 6 -26 6q-26 0 -59 -28q-34 -114 -61 -239q106 54 185 108l-12 -74
q-118 -60 -186 -101q-35 -161 -47 -273q31 -22 76 -22q44 0 111 21q40 42 67 95.5t27 96.5q0 13 -2 19h52q-9 -14 -26.5 -93t-30.5 -181q-120 8 -241 8q-165 0 -279 -8z" />
    <glyph glyph-name="lslash" unicode="&#x142;" horiz-adv-x="315" 
d="M86 646l9 42q77 0 126.5 6t97.5 26q-36 -95 -68 -254l-3 -15q35 22 95 62l-9 -63q-31 -14 -97 -55l-53 -262q-7 -37 -7 -62q0 -28 16 -28q9 0 23.5 9t33 38t27.5 72l33 -14q-13 -51 -64.5 -108t-117.5 -57q-76 0 -76 95q0 32 14 104l24 120q-59 -37 -93 -62l9 63
q29 14 95 55l29 142q15 71 23 128q-29 24 -46 24q-9 0 -21 -6z" />
    <glyph glyph-name="OE" unicode="&#x152;" horiz-adv-x="1019" 
d="M708 344l-61 -284q49 -26 100 -26q58 0 119 20q30 27 50.5 62t23.5 58q3 21 3 48h48q-42 -130 -50 -230l-134 6q-84 2 -134 2q-64 0 -176 -4q-104 -4 -143 -4q-125 0 -207 87t-82 239q0 173 113 278.5t294 105.5q52 0 154 -4t146 -4q159 0 295 8q-42 -121 -49 -230h-48
q18 57 18 82q0 22 -20 82q-69 24 -118 24q-45 0 -80 -21l-55 -265h28q35 0 75 10q31 32 43 54t12 52h45q-20 -52 -38.5 -134.5t-20.5 -145.5h-45q15 21 15 48q0 31 -20 71q-50 15 -101 15zM221 256q0 -114 42.5 -174t111.5 -60q55 0 123 45q11 23 33.5 97t48.5 211.5
t26 252.5q-60 44 -126 44q-79 0 -140 -64t-90 -157t-29 -195z" />
    <glyph glyph-name="oe" unicode="&#x153;" horiz-adv-x="833" 
d="M44 196q0 125 78 204t200 79q110 0 162 -60q64 60 155 60q65 0 113 -29.5t48 -102.5q0 -76 -87 -131q-74 -45 -215 -48v-13q0 -60 27.5 -93.5t77.5 -33.5q46 0 92 35t67 85l33 -21q-106 -144 -261 -144q-85 0 -128 55q-65 -55 -162 -55q-56 0 -97.5 21t-62.5 54.5
t-30.5 68t-9.5 69.5zM542 195q37 0 67 21.5t46.5 52.5t25.5 61.5t9 53.5q0 36 -10.5 50.5t-33.5 14.5q-32 0 -59.5 -28.5t-45 -70.5t-28 -80.5t-13.5 -66.5q21 -8 42 -8zM181 138q0 -128 63 -128q59 0 104 103.5t45 220.5q0 115 -65 115q-39 0 -69 -35.5t-46 -88.5
t-24 -101.5t-8 -85.5z" />
    <glyph glyph-name="Scaron" unicode="&#x160;" horiz-adv-x="574" 
d="M83 237h48q-21 -44 -21 -89q0 -40 17 -88q42 -35 113 -35q49 0 89.5 36.5t40.5 103.5q0 47 -26.5 73.5t-109.5 68.5q-58 29 -93.5 73t-34.5 101q0 35 14 72.5t43.5 75t87.5 62t134 24.5q26 0 78 -4q50 -4 77 -4q18 0 47 8q-27 -88 -37.5 -134.5t-17.5 -114.5h-48
q18 50 18 86q0 37 -24 93q-48 31 -97 31q-64 0 -97.5 -38t-33.5 -90q0 -76 74 -121l59 -36q73 -44 102 -81t29 -94q0 -35 -15.5 -72t-46.5 -72t-85.5 -57.5t-123.5 -22.5q-23 0 -68.5 4t-67.5 4t-76 -8q49 158 52 245zM557 950l25 -29q-43 -18 -91 -72t-83 -109h-30
q-24 119 -97 181l30 29l104 -105z" />
    <glyph glyph-name="scaron" unicode="&#x161;" horiz-adv-x="481" 
d="M64 319q0 73 71.5 116.5t160.5 43.5q86 0 125 -28.5t39 -68.5q0 -29 -20.5 -51.5t-52.5 -22.5q-26 0 -46.5 16t-20.5 42q0 23 14.5 38t30.5 20q-22 25 -60 25q-39 0 -71.5 -25.5t-32.5 -69.5q0 -31 22 -51t53.5 -31t62.5 -23t53 -37t22 -64q0 -72 -66 -118.5t-166 -46.5
q-68 0 -114.5 25t-46.5 74q0 28 21 49t52 21q32 0 46.5 -16t14.5 -39q0 -19 -10.5 -32t-19.5 -17t-17 -6q19 -32 69 -32q43 0 71.5 29t28.5 68q0 35 -22 55.5t-53.5 30t-62.5 20.5t-53 37t-22 69zM456 737l25 -29q-43 -18 -91 -72t-83 -109h-30q-24 119 -97 181l30 29
l104 -105z" />
    <glyph glyph-name="Ydieresis" unicode="&#x178;" horiz-adv-x="685" 
d="M143 -8l12 45q9 -3 23 -3q26 0 57 23q40 164 54 234l-102 266q-30 77 -37 84q-22 22 -45 22q-9 0 -19 -6l12 45q60 -8 160 -8q101 0 175 8l-12 -45q-12 6 -24 6q-29 0 -72 -29q23 -140 93 -303q116 146 185 307q-37 25 -69 25q-12 0 -28 -6l12 45q66 -8 127 -8
q76 0 138 8l-12 -45q-7 6 -15 6q-15 0 -35 -16t-33 -31.5t-34 -43t-23 -30.5l-203 -251q-33 -144 -39 -236q21 -21 49 -21q12 0 22 3l-12 -45q-62 8 -147 8q-82 0 -158 -8zM304 828q0 35 22.5 57t50.5 22q22 0 35.5 -15.5t13.5 -41.5q0 -35 -20.5 -57.5t-47.5 -22.5
q-20 0 -37 14t-17 44zM490 828q0 35 22.5 57t50.5 22q22 0 35.5 -15.5t13.5 -41.5q0 -35 -20.5 -57.5t-47.5 -22.5q-20 0 -37 14t-17 44z" />
    <glyph glyph-name="Zcaron" unicode="&#x17d;" horiz-adv-x="630" 
d="M0 -8l6 30q263 317 450 616q-48 22 -101 22q-68 0 -136 -25q-37 -31 -57 -82t-20 -87q0 -4 1.5 -10.5t1.5 -8.5h-56q12 24 28.5 113.5t23.5 141.5q118 -8 246 -8q160 0 298 8l-6 -30q-164 -199 -267.5 -335t-197.5 -281q44 -22 108 -22q83 0 149 22q74 77 74 171
q0 5 -3 20h52q-31 -102 -51 -255q-120 8 -242 8q-181 0 -301 -8zM555 950l25 -29q-43 -18 -91 -72t-83 -109h-30q-24 119 -97 181l30 29l104 -105z" />
    <glyph glyph-name="zcaron" unicode="&#x17e;" horiz-adv-x="500" 
d="M491 488l36 -26q-38 -59 -182 -211t-192 -221q84 -14 131 -14q38 0 59 23q-20 10 -20 40q0 27 21 53t56 26q22 0 36.5 -15.5t14.5 -43.5q0 -42 -42 -79t-122 -37q-38 0 -115.5 15t-107.5 15q-51 0 -51 -33l-33 20q16 33 168.5 204t195.5 229q-68 13 -106 13
q-46 0 -67 -19q20 -20 20 -43q0 -36 -26.5 -61t-54.5 -25q-25 0 -39 17.5t-14 45.5q0 46 39 82t109 36q44 0 120.5 -12.5t115.5 -12.5q50 0 50 34zM465 737l25 -29q-43 -18 -91 -72t-83 -109h-30q-24 119 -97 181l30 29l104 -105z" />
    <glyph glyph-name="florin" unicode="&#x192;" 
d="M134 392l12 45h101q2 20 11 51t29 71.5t46.5 74.5t68.5 57.5t90 23.5q43 0 67.5 -20t24.5 -56q0 -33 -20.5 -54.5t-46.5 -21.5q-21 0 -35 12.5t-14 37.5q0 42 34 57q-7 12 -22 12q-17 0 -31 -9.5t-24 -31t-17 -40.5t-12.5 -53.5t-8 -54t-6.5 -56.5h108l-12 -45h-100
q-15 -152 -48 -288q-20 -83 -57.5 -160t-94.5 -132.5t-116 -55.5q-32 0 -53.5 17.5t-21.5 49.5q0 27 19 48t49 21q21 0 34.5 -11.5t13.5 -31.5q0 -45 -41 -53q5 -10 20 -10q28 0 47.5 28.5t35.5 110.5q15 78 39 246.5t34 220.5h-103z" />
    <glyph glyph-name="circumflex" unicode="&#x2c6;" horiz-adv-x="278" 
d="M78 527l-25 29q43 18 91 72t83 109h30q24 -119 97 -181l-30 -29l-104 105z" />
    <glyph glyph-name="caron" unicode="&#x2c7;" horiz-adv-x="278" 
d="M354 737l25 -29q-43 -18 -91 -72t-83 -109h-30q-24 119 -97 181l30 29l104 -105z" />
    <glyph glyph-name="uni02C9" unicode="&#x2c9;" horiz-adv-x="278" 
d="M43 585q14 51 14 72q55 -6 172 -6q109 0 147 6q-12 -35 -14 -72q-60 5 -158 5q-91 0 -161 -5z" />
    <glyph glyph-name="breve" unicode="&#x2d8;" horiz-adv-x="278" 
d="M356 694l43 -29q-2 -3 -7.5 -11.5t-22 -25t-36.5 -30t-53 -24t-69 -10.5q-62 0 -93 24.5t-31 53.5q0 27 15 46q48 -3 51 -3q21 0 51 3q-21 -18 -21 -42q0 -16 14.5 -29.5t46.5 -13.5q45 0 75.5 30t36.5 61z" />
    <glyph glyph-name="dotaccent" unicode="&#x2d9;" horiz-adv-x="278" 
d="M148 615q0 35 22.5 57t50.5 22q22 0 35.5 -15.5t13.5 -41.5q0 -35 -20.5 -57.5t-47.5 -22.5q-20 0 -37 14t-17 44z" />
    <glyph glyph-name="ring" unicode="&#x2da;" horiz-adv-x="278" 
d="M119 613q0 19 9 43.5t39 48.5t76 24q45 0 64.5 -27t19.5 -57q0 -46 -33.5 -86t-89.5 -40q-31 0 -58 21.5t-27 72.5zM164 602q0 -23 12 -39.5t34 -16.5q36 0 54 36.5t18 63.5q0 56 -45 56q-32 0 -52.5 -31t-20.5 -69z" />
    <glyph glyph-name="ogonek" unicode="&#x2db;" horiz-adv-x="278" 
d="M200 -188l-18 -36q-68 0 -100 24.5t-32 57.5q0 46 37 85t101 63h31v-2q-47 -31 -74 -66.5t-27 -67.5q0 -28 15.5 -44.5t37.5 -16.5q5 0 16.5 1.5t12.5 1.5z" />
    <glyph glyph-name="tilde" unicode="&#x2dc;" horiz-adv-x="278" 
d="M384 675l32 -25q-61 -86 -132 -86q-32 0 -86 28q-58 30 -85 30q-44 0 -66 -58l-30 23q65 95 142 95q22 0 41.5 -7t61.5 -31q47 -26 61 -26q21 0 41 18.5t20 38.5z" />
    <glyph glyph-name="hungarumlaut" unicode="&#x2dd;" horiz-adv-x="278" 
d="M68 527l-26 27q24 19 78 88.5t65 94.5q23 -22 102 -57q-172 -66 -219 -153zM274 527l-26 27q24 19 78 88.5t65 94.5q23 -22 102 -57q-172 -66 -219 -153z" />
    <glyph glyph-name="uni03A9" unicode="&#x3a9;" horiz-adv-x="774" 
d="M720 170l-65 -170h-265l-5 23q1 2 39 56.5t51 75.5t41 68.5t43 87t23 78.5q23 103 11.5 166t-41.5 90t-79 27q-167 0 -228 -287q-8 -38 -8.5 -80.5t1.5 -72.5t13 -77.5t15.5 -65.5t18.5 -66l-14 -23h-266l11 170h33q7 -45 20.5 -59t47.5 -14h100q-17 15 -28 25.5
t-27.5 29.5t-27 36t-21.5 41t-15.5 48t-4.5 54.5t7 62.5q30 143 138 230t246 87q139 0 208.5 -84t39.5 -226q-11 -50 -36 -95t-65.5 -85t-71 -64.5t-79.5 -59.5h111q33 0 50.5 13.5t43.5 59.5h35z" />
    <glyph glyph-name="uni03BC" unicode="&#x3bc;" horiz-adv-x="630" 
d="M51 292l-36 15q11 25 26 50.5t39 55t57.5 48t70.5 18.5q69 0 69 -81q0 -50 -38 -187t-38 -151q0 -21 17 -21q54 0 156 131q17 89 70 300q37 -8 66 -8q34 0 68 8q-22 -51 -61 -203.5t-39 -201.5q0 -26 14 -26q21 0 53.5 40.5t39.5 80.5l34 -14q-33 -63 -82.5 -113
t-108.5 -50q-66 0 -66 88q0 26 4 45l-2 2q-47 -54 -102.5 -94.5t-104.5 -40.5q-31 0 -36 24l-2 1q-5 -30 -3 -80q4 -62 4 -103q0 -29 -19 -49t-47 -20q-59 0 -59 57q0 20 13 62.5t36.5 113.5t38.5 125q63 228 63 277q0 20 -11 20q-20 0 -47 -33.5t-37 -85.5z" />
    <glyph glyph-name="pi" unicode="&#x3c0;" horiz-adv-x="613" 
d="M605 490l28 -8q-10 -31 -30 -67t-35 -51q-22 -6 -68 -6q-21 -67 -48 -204q-19 -89 23 -89q21 0 52 23l7 -28q-26 -32 -64.5 -52.5t-73.5 -20.5q-106 0 -77 138q20 94 60 236q-30 0 -74.5 1t-62.5 1l-3 -12q-23 -106 -55 -188t-51 -111.5t-35 -45.5q-39 -15 -77 -19l-3 22
q65 68 110 167.5t64 187.5q-44 1 -72 -8t-70 -32l-11 30q2 2 14.5 15t17 17t17 15t20 15.5t21 13.5t25.5 13t27.5 8.5t32.5 6t36 1.5q243 -3 285 -3q25 0 39.5 7t30.5 27z" />
    <glyph glyph-name="endash" unicode="&#x2013;" horiz-adv-x="500" 
d="M0 212l15 72h500l-15 -72h-500z" />
    <glyph glyph-name="emdash" unicode="&#x2014;" horiz-adv-x="1000" 
d="M0 212l15 72h1000l-15 -72h-1000z" />
    <glyph glyph-name="quoteleft" unicode="&#x2018;" horiz-adv-x="296" 
d="M271 715l19 -32q-15 -6 -28 -13t-23.5 -16t-19 -16t-16.5 -17.5t-12.5 -16t-10.5 -17t-8 -14.5t-7 -15l-5 -11l2 -2q22 19 49 19t41.5 -21t14.5 -49q0 -36 -23.5 -64.5t-61.5 -28.5q-40 0 -57.5 29.5t-17.5 61.5q0 51 42 115.5t122 107.5z" />
    <glyph glyph-name="quoteright" unicode="&#x2019;" horiz-adv-x="296" 
d="M131 401l-19 32q15 6 28 13t23.5 16t19 16t16.5 17.5t12.5 16t10.5 17t8 14.5t7 15l5 11l-2 2q-22 -19 -49 -19t-41.5 21t-14.5 49q0 36 23.5 64.5t61.5 28.5q40 0 57.5 -29.5t17.5 -61.5q0 -51 -42 -115.5t-122 -107.5z" />
    <glyph glyph-name="quotesinglbase" unicode="&#x201a;" horiz-adv-x="296" 
d="M34 -160l-19 32q15 6 28 13t23.5 16t19 16t16.5 17.5t12.5 16t10.5 17t8 14.5t7 14l5 12l-2 2q-22 -19 -49 -19t-41.5 21t-14.5 49q0 36 23.5 64.5t61.5 28.5q40 0 57.5 -29.5t17.5 -61.5q0 -51 -42 -115.5t-122 -107.5z" />
    <glyph glyph-name="quotedblleft" unicode="&#x201c;" horiz-adv-x="444" 
d="M245 715l19 -32q-15 -6 -28 -13t-23.5 -16t-19 -16t-16.5 -17.5t-12.5 -16t-10.5 -17t-8 -14.5t-7 -15l-5 -11l2 -2q22 19 49 19t41.5 -21t14.5 -49q0 -36 -23.5 -64.5t-61.5 -28.5q-40 0 -57.5 29.5t-17.5 61.5q0 51 42 115.5t122 107.5zM440 715l19 -32q-15 -6 -28 -13
t-23.5 -16t-19 -16t-16.5 -17.5t-12.5 -16t-10.5 -17t-8 -14.5t-7 -15l-5 -11l2 -2q22 19 49 19t41.5 -21t14.5 -49q0 -36 -23.5 -64.5t-61.5 -28.5q-40 0 -57.5 29.5t-17.5 61.5q0 51 42 115.5t122 107.5z" />
    <glyph glyph-name="quotedblright" unicode="&#x201d;" horiz-adv-x="444" 
d="M308 401l-19 32q15 6 28 13t23.5 16t19 16t16.5 17.5t12.5 16t10.5 17t8 14.5t7 15l5 11l-2 2q-22 -19 -49 -19t-41.5 21t-14.5 49q0 36 23.5 64.5t61.5 28.5q40 0 57.5 -29.5t17.5 -61.5q0 -51 -42 -115.5t-122 -107.5zM113 401l-19 32q15 6 28 13t23.5 16t19 16
t16.5 17.5t12.5 16t10.5 17t8 14.5t7 15l5 11l-2 2q-22 -19 -49 -19t-41.5 21t-14.5 49q0 36 23.5 64.5t61.5 28.5q40 0 57.5 -29.5t17.5 -61.5q0 -51 -42 -115.5t-122 -107.5z" />
    <glyph glyph-name="quotedblbase" unicode="&#x201e;" horiz-adv-x="444" 
d="M229 -160l-19 32q15 6 28 13t23.5 16t19 16t16.5 17.5t12.5 16t10.5 17t8 14.5t7 14l5 12l-2 2q-22 -19 -49 -19t-41.5 21t-14.5 49q0 36 23.5 64.5t61.5 28.5q40 0 57.5 -29.5t17.5 -61.5q0 -51 -42 -115.5t-122 -107.5zM34 -160l-19 32q15 6 28 13t23.5 16t19 16
t16.5 17.5t12.5 16t10.5 17t8 14.5t7 14l5 12l-2 2q-22 -19 -49 -19t-41.5 21t-14.5 49q0 36 23.5 64.5t61.5 28.5q40 0 57.5 -29.5t17.5 -61.5q0 -51 -42 -115.5t-122 -107.5z" />
    <glyph glyph-name="dagger" unicode="&#x2020;" horiz-adv-x="593" 
d="M206 412h62q31 135 41 290q56 -8 67 -8q31 0 73 8q-57 -168 -77 -290h58q12 0 119 8q-13 -37 -16 -79q-64 11 -132 11h-41q-46 -200 -64 -360q-42 8 -63 8q-19 0 -59 -8q27 76 83 360h-57q-25 0 -121 -11q13 32 17 79q78 -8 110 -8z" />
    <glyph glyph-name="daggerdbl" unicode="&#x2021;" horiz-adv-x="593" 
d="M242 505h48q20 116 23 197q46 -8 67 -8q22 0 64 8q-30 -74 -58 -197h44q26 0 127 8q-13 -37 -13 -72q-76 8 -124 8h-47q-23 -82 -35 -164h53q46 0 109 7q-11 -38 -13 -72q-65 9 -109 9h-51q-19 -96 -40 -237q-38 8 -54 8q-20 0 -56 -8q26 73 60 237h-46q-46 0 -116 -9
q11 41 15 72q58 -7 114 -7h44q7 29 17.5 85.5t15.5 78.5h-45q-28 0 -129 -8q14 39 15 72q101 -8 120 -8z" />
    <glyph glyph-name="bullet" unicode="&#x2022;" horiz-adv-x="500" 
d="M98 347q0 72 51 123t123 51t123 -51t51 -123t-51 -123t-123 -51t-123 51t-51 123z" />
    <glyph glyph-name="ellipsis" unicode="&#x2026;" horiz-adv-x="1000" 
d="M61 57q0 38 22.5 67.5t58.5 29.5q35 0 53 -20t18 -50q0 -40 -25 -69.5t-65 -29.5q-27 0 -44.5 17.5t-17.5 54.5zM394 57q0 38 22.5 67.5t58.5 29.5q35 0 53 -20t18 -50q0 -40 -25 -69.5t-65 -29.5q-27 0 -44.5 17.5t-17.5 54.5zM727 57q0 38 22.5 67.5t58.5 29.5
q35 0 53 -20t18 -50q0 -40 -25 -69.5t-65 -29.5q-27 0 -44.5 17.5t-17.5 54.5z" />
    <glyph glyph-name="perthousand" unicode="&#x2030;" horiz-adv-x="1074" 
d="M706 126q0 75 51 129t148 54q86 0 123.5 -40.5t37.5 -94.5q0 -78 -57.5 -134.5t-143.5 -56.5q-45 0 -77.5 14t-49.5 36.5t-24.5 45.5t-7.5 47zM807 104q0 -102 52 -102q47 0 76.5 67t29.5 130q0 88 -58 88q-41 0 -70.5 -54.5t-29.5 -128.5zM301 126q0 75 51 129t148 54
q86 0 123.5 -40.5t37.5 -94.5q0 -78 -57.5 -134.5t-143.5 -56.5q-45 0 -77.5 14t-49.5 36.5t-24.5 45.5t-7.5 47zM402 104q0 -102 52 -102q47 0 76.5 67t29.5 130q0 88 -58 88q-41 0 -70.5 -54.5t-29.5 -128.5zM61 527q0 75 51 129t148 54q86 0 123.5 -40.5t37.5 -94.5
q0 -78 -57.5 -134.5t-143.5 -56.5q-45 0 -77.5 14t-49.5 36.5t-24.5 45.5t-7.5 47zM162 505q0 -102 52 -102q47 0 76.5 67t29.5 130q0 88 -58 88q-41 0 -70.5 -54.5t-29.5 -128.5zM645 714l39 -27q-10 -11 -29.5 -30.5t-35 -36t-28.5 -32.5l-446 -514q-38 -44 -80 -95
l-37 27q52 52 87 92l443 510q8 10 40.5 49.5t46.5 56.5z" />
    <glyph glyph-name="guilsinglleft" unicode="&#x2039;" horiz-adv-x="333" 
d="M245 483l42 -8q-47 -156 -95 -206q19 -41 19 -112q0 -22 -8 -102l-39 5q11 26 11 54q0 103 -129 141l4 30q28 8 55 20.5t60 35t55 59.5t25 83z" />
    <glyph glyph-name="guilsinglright" unicode="&#x203a;" horiz-adv-x="333" 
d="M97 55l-42 8q47 156 95 206q-19 41 -19 112q0 22 8 102l39 -5q-11 -26 -11 -54q0 -103 129 -141l-4 -30q-28 -8 -55 -20.5t-60 -35t-55 -59.5t-25 -83z" />
    <glyph glyph-name="fraction" unicode="&#x2044;" horiz-adv-x="167" 
d="M-121 -21l-45 29q28 38 41 59l371 574q8 12 42 73l45 -29q-21 -26 -52 -74l-368 -571q-20 -31 -34 -61z" />
    <glyph glyph-name="Euro" unicode="&#x20ac;" 
d="M637 715q-39 -144 -50 -232h-48q14 37 15 52q2 75 -12 107q-36 37 -97 37q-48 0 -86.5 -38.5t-60.5 -90t-38 -117.5h118q24 0 67.5 2t59.5 2l-13 -53q-16 0 -59 2t-67 2h-115q-8 -45 -11 -74h83q24 0 67.5 2t59.5 2l-13 -54q-18 0 -60.5 2.5t-65.5 2.5h-74q0 -5 -0.5 -15
t-0.5 -15q0 -207 118 -207q59 0 107.5 42t72.5 102l34 -37q-109 -151 -251 -151q-115 0 -172.5 80.5t-61.5 200.5h-6q-18 0 -54 -2.5t-49 -2.5l14 54q7 0 42.5 -2t53.5 -2q1 32 8 74q-17 0 -50 -2t-48 -2l14 54q14 0 46 -2.5t48 -2.5q34 125 119.5 203.5t215.5 78.5
q26 0 76 -4t76 -4q16 0 48 8z" />
    <glyph glyph-name="afii61289" unicode="&#x2113;" horiz-adv-x="463" 
d="M395 139l20 -22q-101 -133 -223 -133q-79 0 -108 42q-16 25 -18 53t11 100l14 67l-69 -40l-8 32l86 53l30 138q23 111 46 164.5t65 93.5q62 63 128 63q54 0 73.5 -40.5t5.5 -101.5q-17 -83 -70 -149.5t-149 -141.5l-17 -82q-20 -97 -8 -135.5t59 -38.5q60 0 132 78z
M265 486l-24 -112q107 98 135 231q23 108 -20 108q-26 0 -44 -46t-47 -181z" />
    <glyph glyph-name="trademark" unicode="&#x2122;" horiz-adv-x="990" 
d="M139 290v30q34 2 42 8.5t8 24.5v311h-39q-50 0 -65 -66h-30v96h364v-96h-30q-15 66 -65 66h-39v-311q0 -18 8 -24.5t42 -8.5v-30h-196zM821 290v30q34 2 42 8.5t8 24.5v227h-2l-147 -290h-13l-140 290h-2v-191q0 -40 9 -53.5t43 -15.5v-30h-140v30q34 2 43 15.5t9 53.5
v223q0 22 -22.5 37t-45.5 15v30h144l139 -288l144 288h125v-30q-33 -1 -43.5 -11.5t-10.5 -36.5v-263q0 -18 8 -24.5t42 -8.5v-30h-190z" />
    <glyph glyph-name="Omega" unicode="&#x2126;" horiz-adv-x="774" 
d="M720 170l-65 -170h-265l-5 23q1 2 39 56.5t51 75.5t41 68.5t43 87t23 78.5q23 103 11.5 166t-41.5 90t-79 27q-167 0 -228 -287q-8 -38 -8.5 -80.5t1.5 -72.5t13 -77.5t15.5 -65.5t18.5 -66l-14 -23h-266l11 170h33q7 -45 20.5 -59t47.5 -14h100q-17 15 -28 25.5
t-27.5 29.5t-27 36t-21.5 41t-15.5 48t-4.5 54.5t7 62.5q30 143 138 230t246 87q139 0 208.5 -84t39.5 -226q-11 -50 -36 -95t-65.5 -85t-71 -64.5t-79.5 -59.5h111q33 0 50.5 13.5t43.5 59.5h35z" />
    <glyph glyph-name="estimated" unicode="&#x212e;" horiz-adv-x="970" 
d="M936 336h-653q-6 0 -6 -4v-198q0 -12 9 -23q104 -107 247 -107q155 0 260 120h58q-55 -65 -139 -102.5t-180 -37.5q-167 0 -285 106t-118 255q0 151 118 257t285 106t285.5 -106t118.5 -257v-9zM787 362v198q0 14 -9 24q-106 103 -245 103q-142 0 -246 -106
q-10 -10 -10 -25v-194q0 -7 6 -7h500q4 0 4 7z" />
    <glyph glyph-name="partialdiff" unicode="&#x2202;" horiz-adv-x="579" 
d="M319 438h1q37 0 69 -16t47 -47q24 67 35 113q24 93 8 155q-10 32 -36.5 52.5t-66.5 20.5q-70 0 -167 -68q-15 -1 -25.5 32t2.5 55q82 41 163 41q151 0 201 -146q34 -99 5 -240q-33 -149 -106 -250q-110 -155 -264 -155q-91 0 -133.5 55t-22.5 150q21 102 101 173
q83 75 189 75zM340 389h-1q-59 0 -109 -57q-62 -77 -90 -205q-11 -49 3.5 -77t52.5 -28q57 0 126 106q49 74 94 199q-7 23 -26.5 42.5t-49.5 19.5z" />
    <glyph glyph-name="Delta" unicode="&#x2206;" horiz-adv-x="686" 
d="M594 0h-612l7 36l412 660l61 14l139 -674zM448 62l-93 476l-291 -476h384z" />
    <glyph glyph-name="product" unicode="&#x220f;" horiz-adv-x="846" 
d="M818 708v-33q-67 -6 -82 -20.5t-15 -72.5v-534q0 -62 15 -78t81 -22v-34h-307v34q57 5 69 20t12 79v582q0 24 -7 30t-32 6h-166q-24 0 -30 -5.5t-6 -27.5v-585q0 -64 10 -79t64 -20v-34h-300v34q65 5 80 21t15 78v535q0 58 -15 73t-83 20v33h697z" />
    <glyph glyph-name="summation" unicode="&#x2211;" horiz-adv-x="690" 
d="M667 129l-49 -222h-495v33l228 327l-223 407v34h489q1 -10 13 -181l-35 -8q-16 72 -38 109q-13 23 -33.5 31t-77.5 8h-161l176 -314l-232 -338h251q71 0 94.5 18t57.5 105z" />
    <glyph glyph-name="minus" unicode="&#x2212;" horiz-adv-x="600" 
d="M47 205v96h506v-96h-506z" />
    <glyph glyph-name="uni2215" unicode="&#x2215;" horiz-adv-x="167" 
d="M-121 -21l-45 29q28 38 41 59l371 574q8 12 42 73l45 -29q-21 -26 -52 -74l-368 -571q-20 -31 -34 -61z" />
    <glyph glyph-name="uni2219" unicode="&#x2219;" horiz-adv-x="296" 
d="M70 277q0 32 23 55t55 23t55 -23t23 -55t-23 -55t-55 -23t-55 23t-23 55z" />
    <glyph glyph-name="radical" unicode="&#x221a;" horiz-adv-x="683" 
d="M672 887l-183 -1051l-30 -13l-223 552l-91 -42l-14 41l190 86l156 -406h2l142 843z" />
    <glyph glyph-name="infinity" unicode="&#x221e;" horiz-adv-x="826" 
d="M779 290v-1q0 -80 -48.5 -128.5t-114.5 -48.5q-96 0 -181 114q-45 -56 -87 -85t-98 -29q-65 0 -113 48.5t-48 123.5q0 77 48 125.5t121 48.5q97 0 182 -110q51 58 79 78q48 32 102 32q67 0 112.5 -46.5t45.5 -121.5zM259 186h1q26 0 52.5 16t42.5 32.5t40 45.5
q-22 30 -31 41.5t-28.5 31t-38 26.5t-41.5 7q-41 0 -66 -28.5t-25 -74.5q-1 -40 26.5 -68.5t67.5 -28.5zM613 386h-1q-11 0 -22 -3t-19.5 -7t-19.5 -12t-17 -13t-16.5 -16.5t-14.5 -16t-14 -17t-12 -14.5q46 -58 75 -79.5t66 -21.5q39 0 62.5 30.5t23.5 66.5q0 45 -25 74
t-66 29z" />
    <glyph glyph-name="integral" unicode="&#x222b;" horiz-adv-x="514" 
d="M264 -8l-22 405q-5 108 4 190.5t27 130.5t45 78.5t52.5 41t53.5 10.5t52 -15.5t25 -42.5q0 -28 -18 -43.5t-42 -15.5q-14 0 -23 10t-13 22t-10 22t-13 10q-37 0 -29 -156l19 -376q13 -247 -41 -362t-145 -115q-31 0 -53.5 17.5t-22.5 42.5q-1 27 21 45t48 18
q19 0 32 -34.5t23 -34.5q38 0 30 152z" />
    <glyph glyph-name="approxequal" unicode="&#x2248;" horiz-adv-x="602" 
d="M514 458l50 -47q-58 -104 -141 -104q-49 0 -113 40q-53 33 -86 33q-30 0 -51 -18t-46 -54l-50 46q23 45 64.5 74t87.5 29q47 0 106 -36l15 -9t14 -8t11.5 -6t12 -6t10.5 -4t12 -2.5t12 -0.5q46 0 92 73zM514 268l50 -46q-58 -104 -142 -104q-46 0 -112 39q-54 34 -86 34
q-21 0 -40.5 -12.5t-29 -23.5t-27.5 -37l-50 46q23 45 64.5 74t87.5 29q45 0 106 -35q5 -3 21 -13t22.5 -13t19 -7t23.5 -4q28 0 47.5 17.5t45.5 55.5z" />
    <glyph glyph-name="notequal" unicode="&#x2260;" horiz-adv-x="619" 
d="M474 516l-39 -87h136v-78h-166l-58 -134h224v-78h-255l-50 -114l-62 26l39 88h-135v78h166l58 134h-224v78h254l50 112z" />
    <glyph glyph-name="lessequal" unicode="&#x2264;" horiz-adv-x="639" 
d="M589 105l-456 223v85l456 222v-90l-377 -173v-2l377 -175v-90zM592 -11h-463v79h463v-79z" />
    <glyph glyph-name="greaterequal" unicode="&#x2265;" horiz-adv-x="638" 
d="M134 635l456 -223v-84l-456 -223v90l377 175v2l-377 173v90zM590 -11h-460v79h460v-79z" />
    <glyph glyph-name="lozenge" unicode="&#x25ca;" horiz-adv-x="693" 
d="M646 338l-204 -412h-96l-203 412l206 415h93zM557 338l-160 334h-4l-160 -333l161 -335h3z" />
    </font>
</defs>
</svg>
